<?xml version="1.0" encoding="UTF-8"?><svg id="Layer_1" xmlns="http://www.w3.org/2000/svg" viewBox="0 0 1300 665.1"><defs><style>.cls-1{fill:#0a2142;}</style></defs><path class="cls-1" d="M140.51,590.82v35.92c0,6.63-.81,10.27-2.83,12.94-1.62,2.1-3.96,3.72-7.04,4.61-2.1.65-6.31.97-12.54.97-7.93,0-11.57-.4-14.72-1.78-5.83-2.51-7.69-6.39-7.69-16.18v-36.48h10.35v36.48c0,7.85,1.62,9.06,12.13,9.06s11.97-1.13,11.97-9.47v-36.08h10.35Z"/><path class="cls-1" d="M158.16,607l-.32,6.39h.16c1.78-4.77,5.42-6.88,11.73-6.88s10.11,1.7,11.97,4.93c.97,1.78,1.29,3.48,1.29,7.6v25.73h-9.14v-22.73c0-6.8-1.13-8.17-6.71-8.17-6.15,0-8.9,2.59-8.9,8.49v22.41h-9.3v-37.78h9.22Z"/><path class="cls-1" d="M200.96,644.78h-9.14v-53.96h9.14v53.96Z"/><path class="cls-1" d="M240.28,609.67c2.83,2.67,3.88,6.71,3.88,15.29,0,16.83-3.07,20.31-17.8,20.31-8.9,0-13.18-1.38-15.45-5.1-1.86-2.99-2.43-6.47-2.43-15.69,0-8.25,1.13-12.3,4.05-14.88,2.67-2.35,6.07-3.07,14.08-3.07s11.16.81,13.67,3.15ZM217.79,625.53c0,11.08,1.05,12.62,8.41,12.62s8.66-1.62,8.66-13.02c0-9.95-1.13-11.49-8.57-11.49s-8.49,1.54-8.49,11.89Z"/><path class="cls-1" d="M284.85,630.38v1.29c0,4.21-.57,6.96-1.86,8.9-2.26,3.56-5.82,4.69-14.4,4.69-7.36,0-11.16-.89-13.92-3.24-3.15-2.75-4.29-6.88-4.29-16.18,0-7.85.73-11.65,2.91-14.56,2.43-3.32,6.88-4.77,14.24-4.77,13.11,0,16.75,2.99,16.75,13.83h-8.9c0-5.42-1.38-6.63-7.36-6.63-7.36,0-8.33,1.38-8.33,12.38,0,6.15.56,9.22,2.02,10.68.97.97,2.99,1.38,6.55,1.38,6.55,0,7.53-1.05,7.53-7.77h9.06Z"/><path class="cls-1" d="M300.47,621.65h2.35l10.19-14.64h10.52l-13.19,17.8,15.86,19.98h-11.24l-12.3-16.75h-2.18v16.75h-9.14v-53.96h9.14v30.82Z"/><path class="cls-1" d="M374.99,613.88h-14.4v18.93c0,4.37.73,5.42,3.88,5.42,3.56,0,4.45-1.29,4.45-6.47,0-.32,0-.73-.08-1.54h7.68v2.18c0,5.26-.49,7.2-2.02,9.3-1.94,2.51-5.1,3.56-10.92,3.56-6.31,0-9.47-1.38-11.16-4.69-.81-1.54-.97-2.83-.97-6.47v-20.22h-4.94v-6.88h4.94v-8.41h9.14v8.41h14.4v6.88Z"/><path class="cls-1" d="M391.17,613.23h.16c1.94-5.1,4.69-6.71,11.73-6.71,9.3,0,13.02,3.64,13.02,12.62v25.64h-9.14v-23.22c0-3.48-.08-4.21-.81-5.34-.97-1.7-2.67-2.35-5.82-2.35-6.88,0-9.14,2.43-9.14,9.47v21.44h-9.14v-53.96h9.14v22.41Z"/><path class="cls-1" d="M458.32,632.73c0,9.63-3.8,12.54-16.26,12.54-15.13,0-18.53-3.56-18.53-19.58,0-8.25.89-12.3,3.32-15.05,2.67-2.91,6.88-4.13,14.48-4.13,9.87,0,14.08,2.18,16.02,8.17.81,2.67.97,4.53.97,12.86h-25.56v1.46c0,7.68,1.62,9.47,8.58,9.47s7.85-.89,7.93-5.74h9.06ZM449.34,620.43c-.16-5.99-1.38-7.12-8.17-7.12-4.94,0-6.71.65-7.69,2.99-.49,1.21-.56,2.26-.65,5.58h16.5v-1.46Z"/><path class="cls-1" d="M486.48,590.82h21.84c5.74,0,6.31,0,8.33.16,4.77.32,8.49,2.35,10.52,5.66,1.78,2.99,2.43,6.47,2.43,13.02,0,10.03-2.51,14.97-8.74,16.83q-2.19.73-11.97.89h-12.05v17.39h-10.35v-53.96ZM508.49,618.49c9.14,0,10.6-1.21,10.6-8.98,0-5.99-.65-8.17-2.75-9.3-1.45-.65-2.43-.81-6.79-.81h-12.7v19.09h11.65Z"/><path class="cls-1" d="M566.26,609.67c2.83,2.67,3.88,6.71,3.88,15.29,0,16.83-3.07,20.31-17.8,20.31-8.9,0-13.19-1.38-15.45-5.1-1.86-2.99-2.43-6.47-2.43-15.69,0-8.25,1.13-12.3,4.05-14.88,2.67-2.35,6.07-3.07,14.08-3.07s11.16.81,13.67,3.15ZM543.77,625.53c0,11.08,1.05,12.62,8.41,12.62s8.66-1.62,8.66-13.02c0-9.95-1.13-11.49-8.57-11.49s-8.49,1.54-8.49,11.89Z"/><path class="cls-1" d="M622.4,644.78h-13.43l-3.8-16.91c-.65-3.07-1.3-5.99-1.38-6.63l-.73-3.4-.65-3.32h-.24l-.73,3.32c-.16,1.13-.41,2.27-.65,3.4-.16.89-.73,3.64-1.46,6.63l-3.72,16.91h-13.59l-8.41-37.78h9.14l3.64,17.47c.73,3.64.89,4.53,1.94,10.6l.65,3.48h.24l.73-3.48c1.13-5.34,1.21-5.5,2.35-10.52l4.13-17.55h11.57l4.13,17.55,1.54,6.96c.32,1.21.56,2.35.81,3.56l.73,3.48h.24l.65-3.48c1.05-5.74,1.21-6.96,2.02-10.6l3.64-17.47h9.06l-8.41,37.78Z"/><path class="cls-1" d="M668.93,632.73c0,9.63-3.8,12.54-16.26,12.54-15.13,0-18.53-3.56-18.53-19.58,0-8.25.89-12.3,3.32-15.05,2.67-2.91,6.88-4.13,14.48-4.13,9.87,0,14.08,2.18,16.02,8.17.81,2.67.97,4.53.97,12.86h-25.56v1.46c0,7.68,1.62,9.47,8.58,9.47s7.85-.89,7.93-5.74h9.06ZM659.95,620.43c-.16-5.99-1.38-7.12-8.17-7.12-4.94,0-6.71.65-7.69,2.99-.49,1.21-.56,2.26-.65,5.58h16.5v-1.46Z"/><path class="cls-1" d="M685.68,607l-.57,5.26.16.08c2.43-4.37,5.1-5.91,10.27-5.91,3.32,0,6.07,1.05,7.6,2.83,1.78,2.02,2.35,4.45,2.35,9.63v2.75h-8.58c.08-.89.08-1.13.08-2.1,0-4.61-1.05-5.91-4.69-5.91-2.91,0-5.02,1.21-5.99,3.4-.49,1.21-.65,2.43-.65,5.5v22.25h-9.14v-37.78h9.14Z"/><path class="cls-1" d="M761.16,609.67c2.83,2.67,3.88,6.71,3.88,15.29,0,16.83-3.07,20.31-17.8,20.31-8.9,0-13.18-1.38-15.45-5.1-1.86-2.99-2.43-6.47-2.43-15.69,0-8.25,1.13-12.3,4.05-14.88,2.67-2.35,6.07-3.07,14.08-3.07s11.16.81,13.67,3.15ZM738.67,625.53c0,11.08,1.05,12.62,8.41,12.62s8.66-1.62,8.66-13.02c0-9.95-1.13-11.49-8.57-11.49s-8.49,1.54-8.49,11.89Z"/><path class="cls-1" d="M774.52,613.88h-5.34v-6.88h5.34v-4.05c0-4.53.65-7.28,2.18-8.98,2.35-2.59,6.07-3.72,12.22-3.72,1.05,0,2.1.08,3.8.16v7.04c-1.46-.24-2.26-.32-3.32-.32-4.37,0-5.74,1.38-5.74,5.83v4.05h9.3v6.88h-9.3v30.9h-9.14v-30.9Z"/><path class="cls-1" d="M842.64,613.88h-14.4v18.93c0,4.37.73,5.42,3.88,5.42,3.56,0,4.45-1.29,4.45-6.47,0-.32,0-.73-.08-1.54h7.68v2.18c0,5.26-.49,7.2-2.02,9.3-1.94,2.51-5.1,3.56-10.92,3.56-6.31,0-9.47-1.38-11.16-4.69-.81-1.54-.97-2.83-.97-6.47v-20.22h-4.94v-6.88h4.94v-8.41h9.14v8.41h14.4v6.88Z"/><path class="cls-1" d="M858.82,613.23h.16c1.94-5.1,4.69-6.71,11.73-6.71,9.3,0,13.02,3.64,13.02,12.62v25.64h-9.14v-23.22c0-3.48-.08-4.21-.81-5.34-.97-1.7-2.67-2.35-5.82-2.35-6.88,0-9.14,2.43-9.14,9.47v21.44h-9.14v-53.96h9.14v22.41Z"/><path class="cls-1" d="M925.98,632.73c0,9.63-3.8,12.54-16.26,12.54-15.13,0-18.53-3.56-18.53-19.58,0-8.25.89-12.3,3.32-15.05,2.67-2.91,6.88-4.13,14.48-4.13,9.87,0,14.08,2.18,16.02,8.17.81,2.67.97,4.53.97,12.86h-25.56v1.46c0,7.68,1.62,9.47,8.58,9.47s7.85-.89,7.93-5.74h9.06ZM917,620.43c-.16-5.99-1.38-7.12-8.17-7.12-4.94,0-6.71.65-7.69,2.99-.49,1.21-.56,2.26-.65,5.58h16.5v-1.46Z"/><path class="cls-1" d="M954.14,590.82h26.53c13.03,0,17.47,4.05,17.47,16.1,0,10.76-1.86,13.67-9.71,15.21v.41c6.15.32,9.22,3.96,9.14,10.52v11.73h-10.44v-9.71c.16-5.91-2.35-8.41-8.09-8.25h-14.56v17.96h-10.35v-53.96ZM978.97,618.01c3.24,0,5.34-.49,6.55-1.62,1.7-1.38,2.1-2.99,2.1-7.6,0-7.6-1.3-9.06-7.93-9.06h-15.21v18.28h14.48Z"/><path class="cls-1" d="M1055.75,644.78h-17.39l-15.45-29.61c-.97-2.02-2.02-4.21-5.26-11.65l-1.78-3.8h-.32l.08,3.48c.24,5.18.24,5.58.24,10.6v30.98h-10.19v-53.96h17.31l14.08,27.34c2.02,4.05,2.67,5.42,6.31,13.19l2.1,4.45h.32l-.08-3.48c-.24-5.02-.24-5.42-.24-10.44v-31.06h10.27v53.96Z"/><path class="cls-1" d="M1094.99,609.67c2.83,2.67,3.88,6.71,3.88,15.29,0,16.83-3.07,20.31-17.8,20.31-8.9,0-13.19-1.38-15.45-5.1-1.86-2.99-2.43-6.47-2.43-15.69,0-8.25,1.13-12.3,4.05-14.88,2.67-2.35,6.07-3.07,14.08-3.07s11.16.81,13.67,3.15ZM1072.5,625.53c0,11.08,1.05,12.62,8.41,12.62s8.66-1.62,8.66-13.02c0-9.95-1.13-11.49-8.57-11.49s-8.49,1.54-8.49,11.89Z"/><path class="cls-1" d="M1115.63,607l-.24,5.82h.16c1.94-4.45,5.34-6.31,11.49-6.31,6.79,0,10.68,2.43,11.41,7.04h.16c1.86-4.93,5.5-7.04,11.97-7.04,5.42,0,9.38,1.62,11.24,4.61,1.13,1.86,1.7,4.53,1.7,8.66v25h-9.14v-23.06c0-2.26-.32-4.45-.81-5.42-.73-1.54-2.59-2.35-5.58-2.35-3.8,0-6.71,1.21-7.68,3.24-.57,1.05-.81,2.91-.81,5.5v22.08h-9.14v-23.38c0-2.59-.24-4.37-.65-5.18-.73-1.46-2.75-2.26-5.66-2.26-5.99,0-8.41,2.51-8.41,8.9v21.92h-9.14v-37.78h9.14Z"/><path class="cls-1" d="M1205.76,632.73c0,9.63-3.8,12.54-16.26,12.54-15.13,0-18.53-3.56-18.53-19.58,0-8.25.89-12.3,3.32-15.05,2.67-2.91,6.88-4.13,14.48-4.13,9.87,0,14.08,2.18,16.02,8.17.81,2.67.97,4.53.97,12.86h-25.56v1.46c0,7.68,1.62,9.47,8.58,9.47s7.85-.89,7.93-5.74h9.06ZM1196.78,620.43c-.16-5.99-1.38-7.12-8.17-7.12-4.94,0-6.71.65-7.69,2.99-.49,1.21-.56,2.26-.65,5.58h16.5v-1.46Z"/><path class="cls-1" d="M17.94,394.02c0-2.14,1.73-3.87,3.87-3.87h106.71c25.35,0,41.72,4.79,50.7,14.57,8.19,9.18,11.38,24.15,11.38,53.49s-3.79,44.31-13.97,53.69c-8.38,7.79-22.56,11.38-44.91,11.38H21.81c-2.14,0-3.87-1.73-3.87-3.87v-125.4ZM124.93,498.94c10.78,0,18.16-1.39,23.55-4.39,7.79-4.19,10.98-14.37,10.98-34.93,0-36.93-5.79-44.31-34.53-44.31H52.55c-2.14,0-3.87,1.73-3.87,3.87v75.9c0,2.14,1.73,3.87,3.87,3.87h72.38Z"/><path class="cls-1" d="M223.24,389.76h20.96c1.49,0,2.69,1.21,2.69,2.69v16.57c0,1.49-1.21,2.69-2.69,2.69h-20.96c-1.49,0-2.69-1.21-2.69-2.69v-16.57c0-1.49,1.21-2.69,2.69-2.69ZM223.24,429.68h20.96c1.49,0,2.69,1.21,2.69,2.69v88.23c0,1.49-1.21,2.69-2.69,2.69h-20.96c-1.49,0-2.69-1.21-2.69-2.69v-88.23c0-1.49,1.21-2.69,2.69-2.69Z"/><path class="cls-1" d="M280.29,429.68h19.24c1.69,0,3.05,1.37,3.05,3.05v4.07c0,2.92,3.79,4.24,5.47,1.86,1.72-2.44,3.52-3.98,5.91-5.38,6.19-3.39,15.97-5.39,28.14-5.39,18.76,0,30.54,4.39,35.53,13.17,3.2,5.59,4.39,12.17,4.39,23.35,0,.59,0,1.68-.04,3.02-.05,1.65-1.4,2.97-3.05,2.97h-19.03c-1.67,0-3.02-1.36-3.05-3.02-.11-5.92-.59-8.41-1.97-11.35-2.4-4.59-9.78-7.19-20.76-7.19-22.16,0-30.54,7.39-30.54,26.35v45.05c0,1.69-1.37,3.05-3.05,3.05h-20.25c-1.69,0-3.05-1.37-3.05-3.05v-87.51c0-1.69,1.37-3.05,3.05-3.05Z"/><path class="cls-1" d="M431.31,481.57c-1.78,0-3.15,1.51-3.06,3.28.48,8.89,2.26,14.64,5.47,17.68,3.99,3.59,14.97,5.19,34.53,5.19s27.6-2.55,29.72-11.25c.33-1.36,1.55-2.33,2.95-2.33h20.13c1.84,0,3.24,1.62,3.05,3.45-.86,8.3-3.63,14.08-8.74,18.31-8.18,6.59-21.36,8.98-49.1,8.98-21.36,0-38.12-1.79-45.31-4.99-14.37-6.59-19.76-17.96-19.76-42.91,0-20.16,3.39-31.54,11.38-38.92,8.38-7.79,20.56-9.98,53.09-9.98,30.14,0,41.92,2.8,49.9,11.58,6.59,7.58,8.98,16.77,8.98,35.73v3.12c0,1.69-1.37,3.06-3.06,3.06h-90.18ZM495.25,466c1.75,0,3.18-1.49,3.06-3.24-.23-3.49-.9-5.89-2.3-8.54-1.4-2.59-3.39-4.59-5.39-5.59-4.59-2-13.37-3.39-23.15-3.39-20.16,0-25.95.6-31.54,3.59-4.79,2.6-7.79,8.78-7.79,15.97v1.2h67.1Z"/><path class="cls-1" d="M669.28,487.76c2.1,0,3.74,1.81,3.59,3.9-1.91,25.98-16.09,33.43-59.69,33.43-26.15,0-40.52-2-49.1-6.79-11.57-6.39-16.37-18.76-16.37-41.72s4.79-35.53,15.97-41.72c8.59-4.79,22.96-6.99,47.51-6.99,44.72,0,58.42,6.89,60.29,32.43.15,2.09-1.49,3.89-3.59,3.89h-23.17v-.8c.4-4.59-2.59-9.58-6.99-12.18-4.19-2.4-12.37-3.39-27.15-3.39-18.96,0-26.35,1.6-30.74,6.79-3.59,4.19-5.39,11.18-5.39,21.96,0,11.78,2,18.96,6.59,23.15,4.39,4.19,11.78,5.39,33.33,5.39s29.24-3.54,31.01-14.35c.28-1.73,1.77-3.02,3.52-3.02h20.37Z"/><path class="cls-1" d="M796.81,488.96c0,17.17-1.6,23.15-7.39,28.35-6.39,5.59-16.17,7.79-35.13,7.79-21.36,0-31.54-2.6-38.52-9.78-4.59-4.59-7.19-14.57-6.59-23.55l.2-1.6.18-38.33c0-1.87-1.5-3.39-3.37-3.39h-12.79c-1.86,0-3.37-1.51-3.37-3.37v-12.02c0-1.86,1.51-3.37,3.37-3.37h13.01c1.86,0,3.37-1.51,3.37-3.37v-15.01c0-1.86,1.51-3.37,3.37-3.37h19.97c1.88,0,3.39,1.53,3.37,3.4l-.14,14.95c-.02,1.88,1.5,3.4,3.37,3.4h52.9c1.86,0,3.37,1.51,3.37,3.37v12.02c0,1.86-1.51,3.37-3.37,3.37h-52.97c-1.85,0-3.35,1.49-3.37,3.34l-.36,33.99c-.2,16.56,3.39,19.76,21.76,19.76,7.79,0,12.58-1.4,15.37-3.99,2.39-2.6,2.79-5.39,2.79-14.97v-3.59h17.59c1.86,0,3.37,1.51,3.37,3.37v2.61Z"/><path class="cls-1" d="M851.9,481.17v1.4c0,8.59,1.6,13.17,5.39,15.37,4.79,2.8,15.17,4,34.73,4,16.56,0,26.95-.6,41.32-2.4,7.58-1,11.38-2.4,13.77-5.19,2.59-3.19,3.99-7.19,3.99-11.38,0-7.79-3.39-11.58-12.58-13.57-5.59-1.2-5.79-1.2-42.11-1.4h-19.16c-28.15-.2-39.12-2.39-46.51-9.18-6.39-5.59-9.38-13.97-9.38-25.75,0-14.77,3.59-26.94,9.98-32.53,8.98-8.38,29.34-11.57,73.25-11.57,26.75,0,41.12,1,50.3,3.79,16.56,4.79,22.35,13.77,22.35,34.33v2.59h-23.88c-3.25,0-5.97-2.35-6.62-5.53-.88-4.27-2.77-6.79-5.82-8.24-5.59-2.59-18.36-4.19-33.13-4.19-25.15,0-42.72,1.6-48.7,4.59-4.79,2.2-7.19,6.79-7.19,12.98,0,5.79,1.8,9.58,5.59,11.78,4.59,2.59,12.18,3.39,33.14,3.39h22.56c39.92,0,52.1,2.19,60.48,11.17,5.59,5.79,8.18,14.57,8.18,27.75,0,13.97-2.99,23.55-9.58,29.94-8.78,8.38-25.95,11.17-70.86,11.17-47.91,0-62.88-2.19-71.26-10.18-5.99-5.79-8.59-13.77-8.59-26.35,0-.01,0-.02,0-.04,0-3.73,3.02-6.75,6.75-6.75h23.59Z"/><path class="cls-1" d="M1038.4,481.57c-2.26,0-4.04,1.94-3.89,4.19.55,8.38,2.31,13.84,5.42,16.77,3.99,3.59,14.97,5.19,34.53,5.19s27.24-2.43,29.55-10.63c.48-1.71,1.98-2.94,3.76-2.94h18.56c2.34,0,4.16,2.07,3.88,4.39-.97,7.8-3.72,13.3-8.64,17.37-8.18,6.59-21.36,8.98-49.1,8.98-21.36,0-38.12-1.79-45.31-4.99-14.37-6.59-19.76-17.96-19.76-42.91,0-20.16,3.39-31.54,11.38-38.92,8.38-7.79,20.56-9.98,53.09-9.98,30.14,0,41.92,2.8,49.9,11.58,6.59,7.58,8.98,16.77,8.98,35.73v2.3c0,2.15-1.74,3.89-3.89,3.89h-88.46ZM1100.55,466c2.31,0,4.1-2.01,3.88-4.31-.29-2.93-.96-5.1-2.22-7.47-1.4-2.59-3.39-4.59-5.39-5.59-4.59-2-13.37-3.39-23.15-3.39-20.16,0-25.95.6-31.54,3.59-4.79,2.6-7.79,8.78-7.79,15.97v1.2h66.21Z"/><path class="cls-1" d="M1278.43,563.61h-19.09c-2,0-3.63-1.62-3.63-3.63v-40.5c0-3.11-3.66-4.78-6-2.72-2.11,1.87-4.69,3.36-7.97,4.73-6.19,2.6-14.97,3.6-30.74,3.6-47.11,0-57.09-8.38-57.09-48.51s10.58-48.7,59.48-48.7c18.36,0,29.14,2,35.13,6.39.68.52,1.3,1.05,1.88,1.64,2.33,2.34,6.3.85,6.3-2.46v-.14c0-2,1.62-3.63,3.63-3.63h18.09c2,0,3.63,1.62,3.63,3.63v126.68c0,2-1.62,3.63-3.63,3.63ZM1185.65,454.23c-3.6,4.19-4.99,10.58-4.99,23.16,0,24.75,4.59,27.74,42.32,27.74,14.97,0,24.75-2.19,28.34-6.39,2.8-3.19,4.59-11.38,4.59-20.96,0-12.57-.8-17.17-3.79-21.76-3.59-5.99-11.78-8.19-29.34-8.19-23.75,0-32.93,1.6-37.12,6.39Z"/><rect class="cls-1" x="632.54" y="165.87" width="19.52" height="19.52" rx="3.99" ry="3.99"/><path class="cls-1" d="M430.23,107.43h24.48s.01,0,.02,0c0,0,0,0,0,0h193.11c2.2,0,3.99-1.79,3.99-3.99v-11.54c0-2.2-1.79-3.99-3.99-3.99h-193.13s0,0,0,0h-24.48c-2.21,0-4,1.79-4,4v11.53c0,2.21,1.79,4,4,4Z"/><path class="cls-1" d="M543.03,146.41h104.82c2.2,0,3.99-1.79,3.99-3.99v-11.54c0-2.2-1.79-3.99-3.99-3.99h-39.81s-65.01,0-65.01,0h-20.52c-2.2,0-3.99,1.79-3.99,3.99v11.54c0,2.2,1.79,3.99,3.99,3.99h20.52s0,0,0,0ZM606.95,127.06c-.62.18-1.17.49-1.63.91.46-.43,1.01-.74,1.63-.91Z"/><rect class="cls-1" x="426.24" y="48.93" width="225.6" height="19.52" rx="3.99" ry="3.99"/><path class="cls-1" d="M522.51,29.48h35.72c-.1,0-.19-.02-.28-.03.1,0,.19.03.28.03h21.38c-.59,0-1.14-.13-1.64-.36.5.23,1.06.36,1.64.36h68.23c2.2,0,3.99-1.79,3.99-3.99v-11.54c0-2.2-1.79-3.99-3.99-3.99h-125.33c-2.2,0-3.99,1.79-3.99,3.99v11.54c0,2.2,1.79,3.99,3.99,3.99Z"/><path class="cls-1" d="M853.79,302.32c2.21,0,4-1.79,4-4v-11.53c0-2.21-1.79-4-4-4h-217.61c-2.2,0-3.99,1.79-3.99,3.99v11.54c0,2.2,1.79,3.99,3.99,3.99,0,0,193.11,0,193.11,0,0,0,24.5,0,24.5,0Z"/><rect class="cls-1" x="632.19" y="321.78" width="133.32" height="19.52" rx="3.99" ry="3.99"/><path class="cls-1" d="M853.8,243.82h-217.61c-2.2,0-3.99,1.79-3.99,3.99v11.54c0,2.2,1.79,3.99,3.99,3.99h217.61c2.21,0,3.99-1.79,3.99-3.99v-11.54c0-2.2-1.79-3.99-3.99-3.99Z"/><path class="cls-1" d="M632.19,208.84v11.54c0,2.2,1.79,3.99,3.99,3.99h68.23c.36,0,.7-.06,1.03-.15-.33.09-.67.15-1.03.15h21.38c.11,0,.21-.02.31-.03-.1,0-.2.03-.31.03h35.72c2.2,0,3.99-1.79,3.99-3.99v-11.54c0-2.2-1.79-3.99-3.99-3.99h-125.33c-2.2,0-3.99,1.79-3.99,3.99Z"/></svg>