<?xml version="1.0" encoding="UTF-8"?><svg id="Layer_1" xmlns="http://www.w3.org/2000/svg" viewBox="0 0 1300 281.63"><defs><style>.cls-1{fill:#28bfa2;}.cls-2{fill:#0a2142;}.cls-3{fill:#079093;}</style></defs><rect class="cls-2" x="161.19" y="131.04" width="14.75" height="14.75" rx="3.02" ry="3.02" transform="translate(337.13 276.82) rotate(-180)"/><path class="cls-1" d="M90.55,83.88v-8.72c0-1.67,1.35-3.02,3.02-3.02H26.85c1.67,0,3.02,1.35,3.02,3.02v8.71c0,1.66-1.34,3.01-3.01,3.02h66.7s0,0,0,0c-1.66,0-3-1.35-3-3.01Z"/><rect class="cls-2" x="102.04" y="72.14" width="73.73" height="14.75" rx="3.02" ry="3.02"/><path class="cls-3" d="M102.04,83.88v-8.71c0-1.67,1.35-3.02,3.02-3.02h-11.49c-1.67,0-3.02,1.35-3.02,3.02v8.71c0,1.67,1.35,3.02,3.02,3.02h11.49c-1.67,0-3.02-1.35-3.02-3.02Z"/><rect class="cls-3" x="5.33" y="72.14" width="24.53" height="14.75" rx="3.02" ry="3.02"/><rect class="cls-2" x="139.67" y="101.59" width="36.1" height="14.75" rx="3.02" ry="3.02"/><path class="cls-3" d="M139.67,113.32v-8.71c0-1.67,1.35-3.02,3.02-3.02h-49.11c-1.67,0-3.02,1.35-3.02,3.02v8.71c0,1.67,1.35,3.02,3.02,3.02h49.11c-1.67,0-3.02-1.35-3.02-3.02Z"/><path class="cls-1" d="M90.55,113.32v-8.71c0-1.67,1.35-3.02,3.02-3.02h-15.5c-1.67,0-3.02,1.35-3.02,3.02v8.71c0,1.67,1.35,3.02,3.02,3.02h15.5c-1.67,0-3.02-1.35-3.02-3.02Z"/><rect class="cls-2" x="80.05" y="42.7" width="95.72" height="14.75" rx="3.02" ry="3.02"/><path class="cls-3" d="M80.05,54.43v-8.71c0-1.67,1.35-3.02,3.02-3.02h-31.82c-1.67,0-3.02,1.35-3.02,3.02v8.71c0,1.67,1.35,3.02,3.02,3.02h31.82c-1.67,0-3.02-1.35-3.02-3.02Z"/><path class="cls-1" d="M48.24,54.43v-8.71c0-1.67,1.35-3.02,3.02-3.02H8.35c-1.67,0-3.02,1.35-3.02,3.02v8.71c0,1.67,1.35,3.02,3.02,3.02h42.9c-1.67,0-3.02-1.35-3.02-3.02Z"/><rect class="cls-2" x="118.19" y="13.25" width="57.58" height="14.75" rx="3.02" ry="3.02"/><path class="cls-3" d="M118.19,24.98v-8.71c0-1.67,1.35-3.02,3.02-3.02h-16.15c-1.67,0-3.02,1.35-3.02,3.02v8.71c0,1.67,1.35,3.02,3.02,3.02h16.15c-1.67,0-3.02-1.35-3.02-3.02Z"/><path class="cls-1" d="M102.04,24.98v-8.71c0-1.67,1.35-3.02,3.02-3.02h-26.99c-1.67,0-3.02,1.35-3.02,3.02v8.71c0,1.67,1.35,3.02,3.02,3.02h26.99c-1.67,0-3.02-1.35-3.02-3.02Z"/><path class="cls-1" d="M246.14,192.95v8.72c0,1.67-1.35,3.02-3.02,3.02h66.72c-1.67,0-3.02-1.35-3.02-3.02v-8.71c0-1.66,1.34-3.01,3.01-3.02h-66.7s0,0,0,0c1.66,0,3,1.35,3,3.01Z"/><rect class="cls-2" x="160.93" y="189.93" width="73.73" height="14.75" rx="3.02" ry="3.02" transform="translate(395.58 394.61) rotate(180)"/><path class="cls-3" d="M234.66,192.95v8.71c0,1.67-1.35,3.02-3.02,3.02h11.49c1.67,0,3.02-1.35,3.02-3.02v-8.71c0-1.67-1.35-3.02-3.02-3.02h-11.49c1.67,0,3.02,1.35,3.02,3.02Z"/><rect class="cls-3" x="306.83" y="189.93" width="24.53" height="14.75" rx="3.02" ry="3.02" transform="translate(638.19 394.61) rotate(180)"/><rect class="cls-2" x="160.92" y="160.48" width="36.1" height="14.75" rx="3.02" ry="3.02" transform="translate(357.95 335.72) rotate(180)"/><path class="cls-3" d="M197.03,163.5v8.71c0,1.67-1.35,3.02-3.02,3.02h49.11c1.67,0,3.02-1.35,3.02-3.02v-8.71c0-1.67-1.35-3.02-3.02-3.02h-49.11c1.67,0,3.02,1.35,3.02,3.02Z"/><path class="cls-1" d="M246.14,163.5v8.71c0,1.67-1.35,3.02-3.02,3.02h15.5c1.67,0,3.02-1.35,3.02-3.02v-8.71c0-1.67-1.35-3.02-3.02-3.02h-15.5c1.67,0,3.02,1.35,3.02,3.02Z"/><rect class="cls-2" x="160.93" y="219.38" width="95.72" height="14.75" rx="3.02" ry="3.02" transform="translate(417.57 453.5) rotate(180)"/><path class="cls-3" d="M256.64,222.39v8.71c0,1.67-1.35,3.02-3.02,3.02h31.82c1.67,0,3.02-1.35,3.02-3.02v-8.71c0-1.67-1.35-3.02-3.02-3.02h-31.82c1.67,0,3.02,1.35,3.02,3.02Z"/><path class="cls-1" d="M288.46,222.39v8.71c0,1.67-1.35,3.02-3.02,3.02h42.9c1.67,0,3.02-1.35,3.02-3.02v-8.71c0-1.67-1.35-3.02-3.02-3.02h-42.9c1.67,0,3.02,1.35,3.02,3.02Z"/><rect class="cls-2" x="160.92" y="248.83" width="57.58" height="14.75" rx="3.02" ry="3.02" transform="translate(379.43 512.4) rotate(180)"/><path class="cls-3" d="M218.51,251.84v8.71c0,1.67-1.35,3.02-3.02,3.02h16.15c1.67,0,3.02-1.35,3.02-3.02v-8.71c0-1.67-1.35-3.02-3.02-3.02h-16.15c1.67,0,3.02,1.35,3.02,3.02Z"/><path class="cls-1" d="M234.66,251.84v8.71c0,1.67-1.35,3.02-3.02,3.02h26.99c1.67,0,3.02-1.35,3.02-3.02v-8.71c0-1.67-1.35-3.02-3.02-3.02h-26.99c1.67,0,3.02,1.35,3.02,3.02Z"/><path class="cls-2" d="M382.99,54.37c0-1.54,1.25-2.79,2.79-2.79h77.02c18.3,0,30.11,3.46,36.59,10.52,5.91,6.62,8.21,17.43,8.21,38.61s-2.74,31.98-10.09,38.75c-6.05,5.62-16.28,8.21-32.41,8.21h-79.33c-1.54,0-2.79-1.25-2.79-2.79V54.37ZM460.21,130.1c7.78,0,13.11-1.01,17-3.17,5.62-3.02,7.92-10.37,7.92-25.21,0-26.65-4.18-31.98-24.92-31.98h-52.24c-1.54,0-2.79,1.25-2.79,2.79v54.78c0,1.54,1.25,2.79,2.79,2.79h52.24Z"/><path class="cls-2" d="M531.17,51.29h15.13c1.07,0,1.94.87,1.94,1.94v11.96c0,1.07-.87,1.94-1.94,1.94h-15.13c-1.07,0-1.94-.87-1.94-1.94v-11.96c0-1.07.87-1.94,1.94-1.94ZM531.17,80.11h15.13c1.07,0,1.94.87,1.94,1.94v63.68c0,1.07-.87,1.94-1.94,1.94h-15.13c-1.07,0-1.94-.87-1.94-1.94v-63.68c0-1.07.87-1.94,1.94-1.94Z"/><path class="cls-2" d="M572.34,80.11h13.89c1.22,0,2.2.99,2.2,2.2v2.94c0,2.1,2.74,3.06,3.95,1.34,1.24-1.76,2.54-2.88,4.26-3.88,4.46-2.45,11.52-3.89,20.31-3.89,13.54,0,22.04,3.17,25.64,9.51,2.31,4.03,3.17,8.79,3.17,16.85,0,.43,0,1.22-.03,2.18-.04,1.19-1.01,2.15-2.2,2.15h-13.74c-1.2,0-2.18-.98-2.2-2.18-.08-4.27-.43-6.07-1.42-8.19-1.73-3.31-7.06-5.19-14.98-5.19-15.99,0-22.04,5.33-22.04,19.02v32.52c0,1.22-.99,2.2-2.2,2.2h-14.61c-1.22,0-2.2-.99-2.2-2.2v-63.16c0-1.22.99-2.2,2.2-2.2Z"/><path class="cls-2" d="M681.34,117.56c-1.28,0-2.27,1.09-2.21,2.37.35,6.42,1.63,10.57,3.95,12.76,2.88,2.59,10.81,3.74,24.92,3.74s19.92-1.84,21.45-8.12c.24-.98,1.12-1.68,2.13-1.68h14.53c1.33,0,2.34,1.17,2.2,2.49-.62,5.99-2.62,10.16-6.31,13.21-5.9,4.75-15.41,6.48-35.44,6.48-15.41,0-27.51-1.29-32.7-3.6-10.37-4.75-14.26-12.96-14.26-30.97,0-14.55,2.45-22.76,8.21-28.09,6.05-5.62,14.84-7.21,38.32-7.21,21.76,0,30.25,2.02,36.02,8.36,4.75,5.47,6.48,12.1,6.48,25.79v2.26c0,1.22-.99,2.21-2.21,2.21h-65.09ZM727.49,106.33c1.27,0,2.29-1.07,2.21-2.34-.16-2.52-.65-4.25-1.66-6.16-1.01-1.87-2.45-3.31-3.89-4.03-3.31-1.44-9.65-2.45-16.71-2.45-14.55,0-18.73.43-22.76,2.59-3.46,1.88-5.62,6.34-5.62,11.53v.86h48.43Z"/><path class="cls-2" d="M853.1,122.03c1.51,0,2.7,1.3,2.59,2.81-1.38,18.75-11.61,24.13-43.08,24.13-18.87,0-29.24-1.44-35.44-4.9-8.35-4.61-11.81-13.54-11.81-30.11s3.46-25.64,11.52-30.11c6.2-3.46,16.57-5.04,34.29-5.04,32.27,0,42.16,4.97,43.51,23.41.11,1.51-1.08,2.81-2.59,2.81h-16.72v-.58c.29-3.31-1.87-6.91-5.04-8.79-3.02-1.73-8.93-2.45-19.59-2.45-13.69,0-19.02,1.15-22.19,4.9-2.59,3.03-3.89,8.07-3.89,15.85,0,8.5,1.44,13.69,4.76,16.71,3.17,3.03,8.5,3.89,24.06,3.89s21.11-2.56,22.38-10.36c.2-1.25,1.28-2.18,2.54-2.18h14.7Z"/><path class="cls-2" d="M945.15,122.9c0,12.39-1.15,16.71-5.33,20.46-4.61,4.03-11.67,5.62-25.36,5.62-15.41,0-22.76-1.88-27.8-7.06-3.31-3.32-5.19-10.52-4.75-17l.14-1.15.13-27.66c0-1.35-1.09-2.45-2.44-2.45h-9.23c-1.35,0-2.44-1.09-2.44-2.44v-8.67c0-1.35,1.09-2.44,2.44-2.44h9.39c1.35,0,2.44-1.09,2.44-2.44v-10.83c0-1.35,1.09-2.44,2.44-2.44h14.41c1.35,0,2.45,1.1,2.44,2.46l-.1,10.79c-.01,1.35,1.08,2.46,2.44,2.46h38.18c1.35,0,2.44,1.09,2.44,2.44v8.67c0,1.35-1.09,2.44-2.44,2.44h-38.23c-1.33,0-2.42,1.07-2.44,2.41l-.26,24.53c-.14,11.96,2.45,14.26,15.7,14.26,5.62,0,9.08-1.01,11.1-2.88,1.73-1.88,2.01-3.89,2.01-10.81v-2.59h12.69c1.35,0,2.44,1.09,2.44,2.44v1.89Z"/><path class="cls-2" d="M984.91,117.28v1.01c0,6.2,1.15,9.51,3.89,11.09,3.46,2.02,10.95,2.88,25.07,2.88,11.96,0,19.45-.43,29.82-1.73,5.47-.72,8.21-1.73,9.94-3.75,1.87-2.3,2.88-5.19,2.88-8.21,0-5.62-2.45-8.36-9.08-9.8-4.03-.86-4.18-.86-30.4-1.01h-13.83c-20.32-.14-28.24-1.73-33.57-6.62-4.61-4.04-6.77-10.09-6.77-18.59,0-10.66,2.59-19.45,7.2-23.48,6.48-6.05,21.18-8.35,52.87-8.35,19.31,0,29.68.72,36.31,2.73,11.96,3.46,16.13,9.94,16.13,24.78v1.87h-17.24c-2.35,0-4.31-1.69-4.78-3.99-.63-3.08-2-4.9-4.2-5.95-4.03-1.87-13.25-3.02-23.91-3.02-18.15,0-30.83,1.15-35.15,3.31-3.46,1.59-5.19,4.9-5.19,9.37,0,4.18,1.3,6.91,4.03,8.5,3.32,1.87,8.79,2.45,23.92,2.45h16.28c28.81,0,37.6,1.58,43.65,8.07,4.03,4.18,5.9,10.52,5.9,20.03,0,10.08-2.16,17-6.91,21.61-6.34,6.05-18.73,8.07-51.14,8.07-34.58,0-45.38-1.58-51.43-7.35-4.32-4.18-6.2-9.94-6.2-19.02,0,0,0-.02,0-.03,0-2.69,2.18-4.87,4.87-4.87h17.03Z"/><path class="cls-2" d="M1119.52,117.56c-1.63,0-2.91,1.4-2.81,3.02.4,6.05,1.67,9.99,3.91,12.1,2.88,2.59,10.81,3.74,24.92,3.74s19.66-1.75,21.33-7.67c.35-1.24,1.43-2.12,2.71-2.12h13.39c1.69,0,3.01,1.49,2.8,3.17-.7,5.63-2.69,9.6-6.23,12.54-5.9,4.75-15.41,6.48-35.44,6.48-15.41,0-27.51-1.29-32.7-3.6-10.37-4.75-14.26-12.96-14.26-30.97,0-14.55,2.45-22.76,8.21-28.09,6.05-5.62,14.84-7.21,38.32-7.21,21.76,0,30.25,2.02,36.02,8.36,4.75,5.47,6.48,12.1,6.48,25.79v1.66c0,1.55-1.26,2.81-2.81,2.81h-63.85ZM1164.37,106.33c1.66,0,2.96-1.45,2.8-3.11-.21-2.11-.69-3.68-1.6-5.39-1.01-1.87-2.45-3.31-3.89-4.03-3.31-1.44-9.65-2.45-16.71-2.45-14.55,0-18.73.43-22.76,2.59-3.46,1.88-5.62,6.34-5.62,11.53v.86h47.78Z"/><path class="cls-2" d="M1292.76,176.78h-13.78c-1.45,0-2.62-1.17-2.62-2.62v-29.23c0-2.25-2.64-3.45-4.33-1.97-1.53,1.35-3.39,2.43-5.76,3.41-4.47,1.88-10.81,2.6-22.19,2.6-34,0-41.2-6.05-41.2-35.01s7.63-35.15,42.93-35.15c13.25,0,21.03,1.44,25.36,4.61.49.37.94.76,1.36,1.18,1.68,1.69,4.54.61,4.54-1.78v-.1c0-1.45,1.17-2.62,2.62-2.62h13.06c1.45,0,2.62,1.17,2.62,2.62v91.43c0,1.45-1.17,2.62-2.62,2.62ZM1225.8,97.83c-2.6,3.03-3.6,7.64-3.6,16.71,0,17.86,3.32,20.02,30.55,20.02,10.8,0,17.86-1.58,20.46-4.61,2.02-2.3,3.32-8.21,3.32-15.13,0-9.07-.58-12.39-2.74-15.7-2.59-4.32-8.5-5.91-21.18-5.91-17.14,0-23.77,1.15-26.79,4.61Z"/><path class="cls-3" d="M416.21,192.15v27.3c0,5.04-.62,7.81-2.15,9.84-1.23,1.6-3.01,2.83-5.35,3.5-1.6.49-4.8.74-9.53.74-6.03,0-8.79-.31-11.19-1.35-4.43-1.91-5.84-4.86-5.84-12.3v-27.73h7.87v27.73c0,5.96,1.23,6.89,9.22,6.89s9.1-.86,9.1-7.19v-27.42h7.87Z"/><path class="cls-3" d="M429.62,204.45l-.25,4.86h.12c1.35-3.63,4.12-5.23,8.92-5.23s7.69,1.29,9.1,3.75c.74,1.35.98,2.64.98,5.78v19.55h-6.95v-17.28c0-5.16-.86-6.21-5.1-6.21-4.67,0-6.76,1.97-6.76,6.46v17.03h-7.07v-28.71h7.01Z"/><path class="cls-3" d="M462.15,233.16h-6.95v-41.01h6.95v41.01Z"/><path class="cls-3" d="M492.03,206.48c2.15,2.03,2.95,5.1,2.95,11.62,0,12.79-2.34,15.43-13.53,15.43-6.76,0-10.02-1.05-11.74-3.87-1.41-2.27-1.84-4.92-1.84-11.93,0-6.27.86-9.35,3.07-11.31,2.03-1.78,4.61-2.34,10.7-2.34s8.48.61,10.39,2.4ZM474.93,218.53c0,8.42.8,9.59,6.39,9.59s6.58-1.23,6.58-9.9c0-7.56-.86-8.73-6.52-8.73s-6.46,1.17-6.46,9.04Z"/><path class="cls-3" d="M525.91,222.22v.98c0,3.2-.43,5.29-1.41,6.76-1.72,2.71-4.43,3.57-10.94,3.57-5.6,0-8.49-.68-10.58-2.46-2.4-2.09-3.26-5.23-3.26-12.3,0-5.96.55-8.85,2.21-11.07,1.85-2.52,5.23-3.63,10.82-3.63,9.96,0,12.73,2.27,12.73,10.51h-6.76c0-4.12-1.05-5.04-5.59-5.04-5.59,0-6.33,1.05-6.33,9.41,0,4.67.43,7.01,1.54,8.12.74.74,2.28,1.05,4.98,1.05,4.98,0,5.72-.8,5.72-5.9h6.89Z"/><path class="cls-3" d="M537.78,215.58h1.78l7.75-11.13h7.99l-10.02,13.53,12.05,15.19h-8.55l-9.35-12.73h-1.66v12.73h-6.95v-41.01h6.95v23.43Z"/><path class="cls-3" d="M594.41,209.68h-10.94v14.39c0,3.32.55,4.12,2.95,4.12,2.71,0,3.38-.98,3.38-4.92,0-.25,0-.55-.06-1.17h5.84v1.66c0,4-.37,5.47-1.54,7.07-1.48,1.91-3.87,2.71-8.3,2.71-4.8,0-7.19-1.05-8.48-3.57-.61-1.17-.74-2.15-.74-4.92v-15.37h-3.75v-5.23h3.75v-6.39h6.95v6.39h10.94v5.23Z"/><path class="cls-3" d="M606.7,209.18h.12c1.48-3.87,3.57-5.1,8.92-5.1,7.07,0,9.9,2.77,9.9,9.59v19.49h-6.95v-17.65c0-2.64-.06-3.2-.61-4.06-.74-1.29-2.03-1.78-4.43-1.78-5.23,0-6.95,1.84-6.95,7.19v16.29h-6.95v-41.01h6.95v17.03Z"/><path class="cls-3" d="M657.74,224c0,7.32-2.89,9.53-12.36,9.53-11.5,0-14.08-2.71-14.08-14.88,0-6.27.68-9.35,2.52-11.44,2.03-2.21,5.23-3.14,11.01-3.14,7.5,0,10.7,1.66,12.17,6.21.61,2.03.74,3.44.74,9.78h-19.43v1.11c0,5.84,1.23,7.19,6.52,7.19s5.96-.68,6.03-4.37h6.89ZM650.91,214.66c-.12-4.55-1.05-5.41-6.21-5.41-3.75,0-5.1.49-5.84,2.27-.37.92-.43,1.72-.49,4.24h12.54v-1.11Z"/><path class="cls-3" d="M679.14,192.15h16.6c4.37,0,4.8,0,6.33.12,3.63.25,6.46,1.78,7.99,4.3,1.35,2.28,1.84,4.92,1.84,9.9,0,7.62-1.91,11.37-6.64,12.79q-1.66.55-9.1.68h-9.16v13.22h-7.87v-41.01ZM695.86,213.18c6.95,0,8.05-.92,8.05-6.83,0-4.55-.49-6.21-2.09-7.07-1.11-.49-1.84-.61-5.16-.61h-9.65v14.51h8.85Z"/><path class="cls-3" d="M739.76,206.48c2.15,2.03,2.95,5.1,2.95,11.62,0,12.79-2.34,15.43-13.53,15.43-6.76,0-10.02-1.05-11.74-3.87-1.41-2.27-1.84-4.92-1.84-11.93,0-6.27.86-9.35,3.07-11.31,2.03-1.78,4.61-2.34,10.7-2.34s8.48.61,10.39,2.4ZM722.67,218.53c0,8.42.8,9.59,6.39,9.59s6.58-1.23,6.58-9.9c0-7.56-.86-8.73-6.52-8.73s-6.46,1.17-6.46,9.04Z"/><path class="cls-3" d="M782.43,233.16h-10.21l-2.89-12.85c-.49-2.34-.98-4.55-1.04-5.04l-.55-2.58-.49-2.52h-.18l-.55,2.52c-.12.86-.31,1.72-.49,2.58-.12.68-.55,2.77-1.11,5.04l-2.83,12.85h-10.33l-6.39-28.71h6.95l2.77,13.28c.55,2.77.68,3.44,1.48,8.05l.49,2.64h.18l.55-2.64c.86-4.06.92-4.18,1.78-7.99l3.14-13.34h8.79l3.14,13.34,1.17,5.29c.25.92.43,1.78.61,2.71l.55,2.64h.18l.49-2.64c.8-4.37.92-5.29,1.54-8.05l2.77-13.28h6.89l-6.39,28.71Z"/><path class="cls-3" d="M817.79,224c0,7.32-2.89,9.53-12.36,9.53-11.5,0-14.08-2.71-14.08-14.88,0-6.27.68-9.35,2.52-11.44,2.03-2.21,5.23-3.14,11.01-3.14,7.5,0,10.7,1.66,12.17,6.21.62,2.03.74,3.44.74,9.78h-19.43v1.11c0,5.84,1.23,7.19,6.52,7.19s5.96-.68,6.03-4.37h6.89ZM810.96,214.66c-.12-4.55-1.05-5.41-6.21-5.41-3.75,0-5.1.49-5.84,2.27-.37.92-.43,1.72-.49,4.24h12.54v-1.11Z"/><path class="cls-3" d="M830.52,204.45l-.43,4,.12.06c1.84-3.32,3.87-4.49,7.81-4.49,2.52,0,4.61.8,5.78,2.15,1.35,1.54,1.78,3.38,1.78,7.32v2.09h-6.52c.06-.68.06-.86.06-1.6,0-3.5-.8-4.49-3.57-4.49-2.21,0-3.81.92-4.55,2.58-.37.92-.49,1.84-.49,4.18v16.91h-6.95v-28.71h6.95Z"/><path class="cls-3" d="M887.89,206.48c2.15,2.03,2.95,5.1,2.95,11.62,0,12.79-2.34,15.43-13.53,15.43-6.76,0-10.02-1.05-11.74-3.87-1.41-2.27-1.84-4.92-1.84-11.93,0-6.27.86-9.35,3.07-11.31,2.03-1.78,4.61-2.34,10.7-2.34s8.48.61,10.39,2.4ZM870.79,218.53c0,8.42.8,9.59,6.39,9.59s6.58-1.23,6.58-9.9c0-7.56-.86-8.73-6.52-8.73s-6.46,1.17-6.46,9.04Z"/><path class="cls-3" d="M898.03,209.68h-4.06v-5.23h4.06v-3.07c0-3.44.49-5.53,1.66-6.83,1.78-1.97,4.61-2.83,9.28-2.83.8,0,1.6.06,2.89.12v5.35c-1.11-.18-1.72-.25-2.52-.25-3.32,0-4.37,1.05-4.37,4.43v3.07h7.07v5.23h-7.07v23.49h-6.95v-23.49Z"/><path class="cls-3" d="M949.8,209.68h-10.94v14.39c0,3.32.55,4.12,2.95,4.12,2.71,0,3.38-.98,3.38-4.92,0-.25,0-.55-.06-1.17h5.84v1.66c0,4-.37,5.47-1.54,7.07-1.48,1.91-3.87,2.71-8.3,2.71-4.8,0-7.19-1.05-8.49-3.57-.61-1.17-.74-2.15-.74-4.92v-15.37h-3.75v-5.23h3.75v-6.39h6.95v6.39h10.94v5.23Z"/><path class="cls-3" d="M962.1,209.18h.12c1.48-3.87,3.57-5.1,8.92-5.1,7.07,0,9.9,2.77,9.9,9.59v19.49h-6.95v-17.65c0-2.64-.06-3.2-.61-4.06-.74-1.29-2.03-1.78-4.43-1.78-5.23,0-6.95,1.84-6.95,7.19v16.29h-6.95v-41.01h6.95v17.03Z"/><path class="cls-3" d="M1013.13,224c0,7.32-2.89,9.53-12.36,9.53-11.5,0-14.08-2.71-14.08-14.88,0-6.27.68-9.35,2.52-11.44,2.03-2.21,5.23-3.14,11.01-3.14,7.5,0,10.7,1.66,12.17,6.21.61,2.03.74,3.44.74,9.78h-19.43v1.11c0,5.84,1.23,7.19,6.52,7.19s5.96-.68,6.03-4.37h6.89ZM1006.31,214.66c-.12-4.55-1.05-5.41-6.21-5.41-3.75,0-5.1.49-5.84,2.27-.37.92-.43,1.72-.49,4.24h12.54v-1.11Z"/><path class="cls-3" d="M1034.53,192.15h20.17c9.9,0,13.28,3.07,13.28,12.24,0,8.18-1.41,10.39-7.38,11.56v.31c4.67.25,7.01,3.01,6.95,7.99v8.92h-7.93v-7.38c.12-4.49-1.78-6.39-6.15-6.27h-11.07v13.65h-7.87v-41.01ZM1053.41,212.81c2.46,0,4.06-.37,4.98-1.23,1.29-1.05,1.6-2.28,1.6-5.78,0-5.78-.98-6.89-6.02-6.89h-11.56v13.9h11.01Z"/><path class="cls-3" d="M1111.76,233.16h-13.22l-11.74-22.5c-.74-1.54-1.54-3.2-4-8.85l-1.35-2.89h-.25l.06,2.64c.18,3.94.18,4.24.18,8.05v23.55h-7.75v-41.01h13.16l10.7,20.78c1.54,3.07,2.03,4.12,4.8,10.02l1.6,3.38h.25l-.06-2.64c-.18-3.81-.18-4.12-.18-7.93v-23.61h7.81v41.01Z"/><path class="cls-3" d="M1141.58,206.48c2.15,2.03,2.95,5.1,2.95,11.62,0,12.79-2.34,15.43-13.53,15.43-6.76,0-10.02-1.05-11.74-3.87-1.41-2.27-1.84-4.92-1.84-11.93,0-6.27.86-9.35,3.07-11.31,2.03-1.78,4.61-2.34,10.7-2.34s8.48.61,10.39,2.4ZM1124.49,218.53c0,8.42.8,9.59,6.39,9.59s6.58-1.23,6.58-9.9c0-7.56-.86-8.73-6.52-8.73s-6.46,1.17-6.46,9.04Z"/><path class="cls-3" d="M1157.26,204.45l-.18,4.43h.12c1.48-3.38,4.06-4.8,8.73-4.8,5.16,0,8.12,1.84,8.67,5.35h.12c1.41-3.75,4.18-5.35,9.1-5.35,4.12,0,7.13,1.23,8.55,3.5.86,1.41,1.29,3.44,1.29,6.58v19h-6.95v-17.52c0-1.72-.25-3.38-.62-4.12-.55-1.17-1.97-1.78-4.24-1.78-2.89,0-5.1.92-5.84,2.46-.43.8-.61,2.21-.61,4.18v16.79h-6.95v-17.77c0-1.97-.18-3.32-.49-3.94-.55-1.11-2.09-1.72-4.3-1.72-4.55,0-6.39,1.91-6.39,6.76v16.66h-6.95v-28.71h6.95Z"/><path class="cls-3" d="M1225.76,224c0,7.32-2.89,9.53-12.36,9.53-11.5,0-14.08-2.71-14.08-14.88,0-6.27.68-9.35,2.52-11.44,2.03-2.21,5.23-3.14,11.01-3.14,7.5,0,10.7,1.66,12.17,6.21.61,2.03.74,3.44.74,9.78h-19.43v1.11c0,5.84,1.23,7.19,6.52,7.19s5.96-.68,6.03-4.37h6.89ZM1218.93,214.66c-.12-4.55-1.05-5.41-6.21-5.41-3.75,0-5.1.49-5.84,2.27-.37.92-.43,1.72-.49,4.24h12.54v-1.11Z"/></svg>