<?xml version="1.0" encoding="UTF-8"?><svg id="Layer_1" xmlns="http://www.w3.org/2000/svg" viewBox="0 0 1300 562.88"><defs><style>.cls-1{fill:#28bfa2;}.cls-2{fill:#0a2142;}.cls-3{fill:#079093;}</style></defs><rect class="cls-2" x="635.8" y="166.26" width="17.77" height="17.77" rx="3.63" ry="3.63" transform="translate(1289.38 350.28) rotate(-180)"/><path class="cls-1" d="M550.7,109.44v-10.5c0-2.01,1.63-3.63,3.63-3.63h-80.38c2.01,0,3.64,1.63,3.64,3.64v10.5c0,2-1.62,3.63-3.62,3.63h80.35s0,0,0,0c-2-.01-3.62-1.63-3.62-3.63Z"/><rect class="cls-2" x="564.54" y="95.3" width="88.83" height="17.77" rx="3.63" ry="3.63"/><path class="cls-3" d="M564.54,109.44v-10.5c0-2.01,1.63-3.63,3.63-3.63h-13.84c-2.01,0-3.63,1.63-3.63,3.63v10.5c0,2.01,1.63,3.63,3.63,3.63h13.84c-2.01,0-3.63-1.63-3.63-3.63Z"/><rect class="cls-3" x="448.03" y="95.3" width="29.55" height="17.77" rx="3.64" ry="3.64"/><rect class="cls-2" x="609.87" y="130.78" width="43.5" height="17.77" rx="3.63" ry="3.63"/><path class="cls-3" d="M609.87,144.91v-10.5c0-2.01,1.63-3.63,3.63-3.63h-59.17c-2.01,0-3.63,1.63-3.63,3.63v10.5c0,2.01,1.63,3.63,3.63,3.63h59.17c-2.01,0-3.63-1.63-3.63-3.63Z"/><path class="cls-1" d="M550.7,144.91v-10.5c0-2.01,1.63-3.63,3.63-3.63h-18.67c-2.01,0-3.63,1.63-3.63,3.63v10.5c0,2.01,1.63,3.63,3.63,3.63h18.67c-2.01,0-3.63-1.63-3.63-3.63Z"/><rect class="cls-2" x="538.05" y="59.83" width="115.31" height="17.77" rx="3.63" ry="3.63"/><path class="cls-3" d="M538.05,73.96v-10.5c0-2.01,1.63-3.63,3.63-3.63h-38.33c-2.01,0-3.63,1.63-3.63,3.63v10.5c0,2.01,1.63,3.63,3.63,3.63h38.33c-2.01,0-3.63-1.63-3.63-3.63Z"/><path class="cls-1" d="M499.72,73.96v-10.5c0-2.01,1.63-3.63,3.63-3.63h-51.69c-2.01,0-3.63,1.63-3.63,3.63v10.5c0,2.01,1.63,3.63,3.63,3.63h51.69c-2.01,0-3.63-1.63-3.63-3.63Z"/><rect class="cls-2" x="584" y="24.35" width="69.37" height="17.77" rx="3.63" ry="3.63"/><path class="cls-3" d="M584,38.48v-10.5c0-2.01,1.63-3.63,3.63-3.63h-19.46c-2.01,0-3.63,1.63-3.63,3.63v10.5c0,2.01,1.63,3.63,3.63,3.63h19.46c-2.01,0-3.63-1.63-3.63-3.63Z"/><path class="cls-1" d="M564.54,38.48v-10.5c0-2.01,1.63-3.63,3.63-3.63h-32.51c-2.01,0-3.63,1.63-3.63,3.63v10.5c0,2.01,1.63,3.63,3.63,3.63h32.51c-2.01,0-3.63-1.63-3.63-3.63Z"/><path class="cls-1" d="M738.15,240.84v10.5c0,2.01-1.63,3.63-3.63,3.63h80.38c-2.01,0-3.64-1.63-3.64-3.64v-10.5c0-2,1.62-3.63,3.62-3.63h-80.35s0,0,0,0c2,.01,3.62,1.63,3.62,3.63Z"/><rect class="cls-2" x="635.48" y="237.21" width="88.83" height="17.77" rx="3.63" ry="3.63" transform="translate(1359.79 492.18) rotate(180)"/><path class="cls-3" d="M724.31,240.84v10.5c0,2.01-1.63,3.63-3.63,3.63h13.84c2.01,0,3.63-1.63,3.63-3.63v-10.5c0-2.01-1.63-3.63-3.63-3.63h-13.84c2.01,0,3.63,1.63,3.63,3.63Z"/><rect class="cls-3" x="811.27" y="237.21" width="29.55" height="17.77" rx="3.64" ry="3.64" transform="translate(1652.09 492.19) rotate(180)"/><rect class="cls-2" x="635.48" y="201.73" width="43.5" height="17.77" rx="3.63" ry="3.63" transform="translate(1314.46 421.23) rotate(180)"/><path class="cls-3" d="M678.98,205.37v10.5c0,2.01-1.63,3.63-3.63,3.63h59.17c2.01,0,3.63-1.63,3.63-3.63v-10.5c0-2.01-1.63-3.63-3.63-3.63h-59.17c2.01,0,3.63,1.63,3.63,3.63Z"/><path class="cls-1" d="M738.15,205.37v10.5c0,2.01-1.63,3.63-3.63,3.63h18.67c2.01,0,3.63-1.63,3.63-3.63v-10.5c0-2.01-1.63-3.63-3.63-3.63h-18.67c2.01,0,3.63,1.63,3.63,3.63Z"/><rect class="cls-2" x="635.48" y="272.69" width="115.31" height="17.77" rx="3.63" ry="3.63" transform="translate(1386.28 563.14) rotate(180)"/><path class="cls-3" d="M750.8,276.32v10.5c0,2.01-1.63,3.63-3.63,3.63h38.33c2.01,0,3.63-1.63,3.63-3.63v-10.5c0-2.01-1.63-3.63-3.63-3.63h-38.33c2.01,0,3.63,1.63,3.63,3.63Z"/><path class="cls-1" d="M789.13,276.32v10.5c0,2.01-1.63,3.63-3.63,3.63h51.69c2.01,0,3.63-1.63,3.63-3.63v-10.5c0-2.01-1.63-3.63-3.63-3.63h-51.69c2.01,0,3.63,1.63,3.63,3.63Z"/><rect class="cls-2" x="635.48" y="308.16" width="69.37" height="17.77" rx="3.63" ry="3.63" transform="translate(1340.34 634.09) rotate(180)"/><path class="cls-3" d="M704.85,311.8v10.5c0,2.01-1.63,3.63-3.63,3.63h19.46c2.01,0,3.63-1.63,3.63-3.63v-10.5c0-2.01-1.63-3.63-3.63-3.63h-19.46c2.01,0,3.63,1.63,3.63,3.63Z"/><path class="cls-1" d="M724.31,311.8v10.5c0,2.01-1.63,3.63-3.63,3.63h32.51c2.01,0,3.63-1.63,3.63-3.63v-10.5c0-2.01-1.63-3.63-3.63-3.63h-32.51c2.01,0,3.63,1.63,3.63,3.63Z"/><path class="cls-2" d="M17.05,378.73c0-2.14,1.73-3.87,3.87-3.87h106.86c25.39,0,41.78,4.8,50.77,14.59,8.2,9.19,11.4,24.19,11.4,53.57s-3.8,44.37-13.99,53.77c-8.39,7.8-22.59,11.39-44.97,11.39H20.93c-2.14,0-3.87-1.73-3.87-3.87v-125.58ZM124.19,483.8c10.79,0,18.19-1.4,23.59-4.4,7.8-4.2,10.99-14.39,10.99-34.98,0-36.98-5.8-44.37-34.58-44.37H51.71c-2.14,0-3.87,1.73-3.87,3.87v76c0,2.14,1.73,3.87,3.87,3.87h72.48Z"/><path class="cls-2" d="M222.64,374.46h20.99c1.49,0,2.7,1.21,2.7,2.7v16.59c0,1.49-1.21,2.7-2.7,2.7h-20.99c-1.49,0-2.7-1.21-2.7-2.7v-16.59c0-1.49,1.21-2.7,2.7-2.7ZM222.64,414.44h20.99c1.49,0,2.7,1.21,2.7,2.7v88.35c0,1.49-1.21,2.7-2.7,2.7h-20.99c-1.49,0-2.7-1.21-2.7-2.7v-88.35c0-1.49,1.21-2.7,2.7-2.7Z"/><path class="cls-2" d="M279.77,414.44h19.27c1.69,0,3.06,1.37,3.06,3.06v4.07c0,2.92,3.8,4.25,5.48,1.86,1.72-2.44,3.52-3.99,5.92-5.39,6.19-3.4,15.99-5.4,28.18-5.4,18.79,0,30.58,4.4,35.58,13.19,3.2,5.6,4.4,12.19,4.4,23.38,0,.59,0,1.69-.04,3.02-.05,1.65-1.41,2.98-3.06,2.98h-19.06c-1.67,0-3.02-1.36-3.05-3.03-.11-5.93-.59-8.42-1.97-11.36-2.4-4.6-9.79-7.2-20.79-7.2-22.19,0-30.58,7.4-30.58,26.39v45.12c0,1.69-1.37,3.06-3.06,3.06h-20.28c-1.69,0-3.06-1.37-3.06-3.06v-87.64c0-1.69,1.37-3.06,3.06-3.06Z"/><path class="cls-2" d="M431,466.41c-1.78,0-3.16,1.51-3.06,3.29.48,8.9,2.26,14.66,5.48,17.7,4,3.6,14.99,5.19,34.58,5.19s27.64-2.55,29.76-11.26c.33-1.36,1.55-2.33,2.96-2.33h20.16c1.84,0,3.24,1.62,3.05,3.45-.86,8.31-3.64,14.1-8.76,18.33-8.19,6.59-21.39,8.99-49.17,8.99-21.39,0-38.18-1.8-45.37-5-14.39-6.59-19.79-17.99-19.79-42.97,0-20.19,3.4-31.58,11.39-38.98,8.39-7.8,20.59-10,53.17-10,30.19,0,41.97,2.8,49.97,11.6,6.59,7.59,8.99,16.79,8.99,35.78v3.13c0,1.69-1.37,3.07-3.07,3.07h-90.3ZM495.03,450.81c1.76,0,3.18-1.49,3.07-3.24-.23-3.49-.9-5.9-2.31-8.55-1.4-2.6-3.4-4.6-5.4-5.6-4.6-2-13.39-3.4-23.19-3.4-20.19,0-25.99.6-31.58,3.6-4.8,2.6-7.8,8.8-7.8,15.99v1.2h67.2Z"/><path class="cls-2" d="M669.3,472.61c2.1,0,3.75,1.81,3.59,3.9-1.91,26.02-16.11,33.48-59.77,33.48-26.18,0-40.57-2-49.17-6.8-11.59-6.4-16.39-18.79-16.39-41.78s4.8-35.58,15.99-41.78c8.6-4.8,22.99-7,47.57-7,44.78,0,58.5,6.9,60.37,32.48.15,2.09-1.49,3.9-3.59,3.9h-23.2v-.8c.4-4.6-2.6-9.59-7-12.19-4.2-2.4-12.39-3.4-27.18-3.4-18.99,0-26.39,1.6-30.78,6.8-3.6,4.2-5.4,11.19-5.4,21.99,0,11.79,2,18.99,6.6,23.19,4.4,4.2,11.79,5.4,33.38,5.4s29.29-3.55,31.05-14.37c.28-1.73,1.77-3.02,3.53-3.02h20.4Z"/><path class="cls-2" d="M797.02,473.8c0,17.19-1.6,23.19-7.4,28.39-6.4,5.6-16.19,7.8-35.18,7.8-21.39,0-31.58-2.6-38.58-9.79-4.6-4.6-7.2-14.59-6.59-23.59l.2-1.6.18-38.38c0-1.87-1.51-3.39-3.38-3.39h-12.81c-1.87,0-3.38-1.51-3.38-3.38v-12.03c0-1.87,1.51-3.38,3.38-3.38h13.03c1.87,0,3.38-1.51,3.38-3.38v-15.03c0-1.87,1.51-3.38,3.38-3.38h19.99c1.88,0,3.4,1.53,3.38,3.41l-.14,14.97c-.02,1.88,1.5,3.41,3.38,3.41h52.98c1.87,0,3.38,1.51,3.38,3.38v12.03c0,1.87-1.51,3.38-3.38,3.38h-53.04c-1.85,0-3.36,1.49-3.38,3.34l-.36,34.04c-.2,16.59,3.4,19.79,21.79,19.79,7.8,0,12.59-1.4,15.39-4,2.39-2.6,2.8-5.4,2.8-14.99v-3.6h17.61c1.87,0,3.38,1.51,3.38,3.38v2.62Z"/><path class="cls-2" d="M852.19,466.01v1.4c0,8.6,1.6,13.19,5.4,15.39,4.8,2.8,15.19,4,34.78,4,16.59,0,26.99-.6,41.38-2.4,7.59-1,11.39-2.4,13.79-5.2,2.6-3.2,4-7.2,4-11.39,0-7.8-3.4-11.6-12.59-13.59-5.6-1.2-5.79-1.2-42.17-1.4h-19.19c-28.19-.2-39.18-2.39-46.57-9.19-6.4-5.6-9.39-13.99-9.39-25.79,0-14.79,3.6-26.98,9.99-32.58,8.99-8.39,29.38-11.59,73.36-11.59,26.79,0,41.18,1,50.37,3.79,16.59,4.8,22.38,13.79,22.38,34.38v2.6h-23.92c-3.25,0-5.98-2.35-6.63-5.54-.88-4.28-2.77-6.8-5.83-8.25-5.6-2.6-18.39-4.2-33.18-4.2-25.18,0-42.78,1.6-48.77,4.6-4.8,2.2-7.2,6.8-7.2,13,0,5.79,1.8,9.59,5.6,11.79,4.6,2.6,12.19,3.4,33.18,3.4h22.59c39.98,0,52.17,2.2,60.56,11.19,5.6,5.8,8.19,14.59,8.19,27.79,0,13.99-3,23.59-9.59,29.98-8.8,8.39-25.99,11.19-70.96,11.19-47.97,0-62.96-2.2-71.36-10.19-6-5.8-8.6-13.79-8.6-26.39,0-.01,0-.02,0-.04,0-3.73,3.03-6.76,6.76-6.76h23.62Z"/><path class="cls-2" d="M1038.95,466.41c-2.26,0-4.04,1.94-3.89,4.2.55,8.39,2.32,13.86,5.42,16.79,4,3.6,14.99,5.19,34.58,5.19s27.28-2.43,29.6-10.64c.48-1.71,1.98-2.95,3.76-2.95h18.58c2.34,0,4.17,2.07,3.88,4.39-.97,7.81-3.73,13.32-8.65,17.39-8.19,6.59-21.39,8.99-49.17,8.99-21.39,0-38.18-1.8-45.37-5-14.39-6.59-19.79-17.99-19.79-42.97,0-20.19,3.4-31.58,11.39-38.98,8.39-7.8,20.59-10,53.17-10,30.19,0,41.97,2.8,49.97,11.6,6.59,7.59,8.99,16.79,8.99,35.78v2.3c0,2.15-1.74,3.89-3.89,3.89h-88.59ZM1101.18,450.81c2.31,0,4.11-2.01,3.88-4.31-.29-2.93-.96-5.11-2.22-7.48-1.4-2.6-3.4-4.6-5.4-5.6-4.6-2-13.39-3.4-23.19-3.4-20.19,0-25.99.6-31.58,3.6-4.8,2.6-7.8,8.8-7.8,15.99v1.2h66.3Z"/><path class="cls-2" d="M1279.31,548.56h-19.12c-2.01,0-3.63-1.63-3.63-3.63v-40.55c0-3.12-3.67-4.79-6-2.73-2.12,1.87-4.7,3.37-7.99,4.74-6.2,2.6-14.99,3.6-30.78,3.6-47.17,0-57.17-8.39-57.17-48.57s10.59-48.77,59.57-48.77c18.39,0,29.18,2,35.18,6.4.68.52,1.3,1.05,1.89,1.64,2.34,2.34,6.31.85,6.31-2.46v-.15c0-2.01,1.63-3.63,3.63-3.63h18.12c2.01,0,3.63,1.63,3.63,3.63v126.86c0,2.01-1.63,3.63-3.63,3.63ZM1186.4,439.02c-3.6,4.2-5,10.6-5,23.19,0,24.78,4.6,27.78,42.38,27.78,14.99,0,24.78-2.2,28.38-6.4,2.8-3.2,4.6-11.39,4.6-20.99,0-12.59-.8-17.19-3.8-21.79-3.6-6-11.79-8.2-29.38-8.2-23.78,0-32.98,1.6-37.18,6.4Z"/></svg>