<?xml version="1.0" encoding="UTF-8"?><svg id="Layer_1" xmlns="http://www.w3.org/2000/svg" viewBox="0 0 1300 566.9"><defs><style>.cls-1{fill:#28bfa2;}.cls-2{fill:#f3ffff;}.cls-3{fill:#079093;}</style></defs><rect class="cls-2" x="638.52" y="168.14" width="17.83" height="17.83" rx="3.65" ry="3.65" transform="translate(1294.88 354.12) rotate(-180)"/><path class="cls-3" d="M553.12,111.12v-10.54c0-2.01,1.63-3.65,3.65-3.65h-80.67c2.02,0,3.65,1.63,3.65,3.65v10.53c0,2.01-1.63,3.64-3.63,3.65h80.64s0,0,0,0c-2.01-.01-3.63-1.64-3.63-3.64Z"/><rect class="cls-2" x="567.01" y="96.94" width="89.14" height="17.83" rx="3.65" ry="3.65"/><path class="cls-1" d="M567.01,111.12v-10.54c0-2.01,1.63-3.65,3.65-3.65h-13.89c-2.01,0-3.65,1.63-3.65,3.65v10.54c0,2.01,1.63,3.65,3.65,3.65h13.89c-2.01,0-3.65-1.63-3.65-3.65Z"/><rect class="cls-1" x="450.09" y="96.94" width="29.66" height="17.83" rx="3.65" ry="3.65"/><rect class="cls-2" x="612.5" y="132.54" width="43.65" height="17.83" rx="3.65" ry="3.65"/><path class="cls-1" d="M612.5,146.72v-10.54c0-2.01,1.63-3.65,3.65-3.65h-59.38c-2.01,0-3.65,1.63-3.65,3.65v10.54c0,2.01,1.63,3.65,3.65,3.65h59.38c-2.01,0-3.65-1.63-3.65-3.65Z"/><path class="cls-3" d="M553.12,146.72v-10.54c0-2.01,1.63-3.65,3.65-3.65h-18.74c-2.01,0-3.65,1.63-3.65,3.65v10.54c0,2.01,1.63,3.65,3.65,3.65h18.74c-2.01,0-3.65-1.63-3.65-3.65Z"/><rect class="cls-2" x="540.43" y="61.34" width="115.72" height="17.83" rx="3.65" ry="3.65"/><path class="cls-1" d="M540.43,75.52v-10.54c0-2.01,1.63-3.65,3.65-3.65h-38.47c-2.01,0-3.65,1.63-3.65,3.65v10.54c0,2.01,1.63,3.65,3.65,3.65h38.47c-2.01,0-3.65-1.63-3.65-3.65Z"/><path class="cls-3" d="M501.96,75.52v-10.54c0-2.01,1.63-3.65,3.65-3.65h-51.87c-2.01,0-3.65,1.63-3.65,3.65v10.54c0,2.01,1.63,3.65,3.65,3.65h51.87c-2.01,0-3.65-1.63-3.65-3.65Z"/><rect class="cls-2" x="586.53" y="25.74" width="69.62" height="17.83" rx="3.65" ry="3.65"/><path class="cls-1" d="M586.53,39.92v-10.54c0-2.01,1.63-3.65,3.65-3.65h-19.52c-2.01,0-3.65,1.63-3.65,3.65v10.54c0,2.01,1.63,3.65,3.65,3.65h19.52c-2.01,0-3.65-1.63-3.65-3.65Z"/><path class="cls-3" d="M567.01,39.92v-10.54c0-2.01,1.63-3.65,3.65-3.65h-32.63c-2.01,0-3.65,1.63-3.65,3.65v10.54c0,2.01,1.63,3.65,3.65,3.65h32.63c-2.01,0-3.65-1.63-3.65-3.65Z"/><path class="cls-3" d="M741.23,242.99v10.54c0,2.01-1.63,3.65-3.65,3.65h80.67c-2.02,0-3.65-1.63-3.65-3.65v-10.53c0-2.01,1.63-3.64,3.63-3.65h-80.64s0,0,0,0c2.01.01,3.63,1.64,3.63,3.64Z"/><rect class="cls-2" x="638.2" y="239.34" width="89.14" height="17.83" rx="3.65" ry="3.65" transform="translate(1365.54 496.52) rotate(180)"/><path class="cls-1" d="M727.34,242.99v10.54c0,2.01-1.63,3.65-3.65,3.65h13.89c2.01,0,3.65-1.63,3.65-3.65v-10.54c0-2.01-1.63-3.65-3.65-3.65h-13.89c2.01,0,3.65,1.63,3.65,3.65Z"/><rect class="cls-1" x="814.6" y="239.34" width="29.66" height="17.83" rx="3.65" ry="3.65" transform="translate(1658.86 496.52) rotate(180)"/><rect class="cls-2" x="638.2" y="203.74" width="43.65" height="17.83" rx="3.65" ry="3.65" transform="translate(1320.05 425.32) rotate(180)"/><path class="cls-1" d="M681.85,207.39v10.54c0,2.01-1.63,3.65-3.65,3.65h59.38c2.01,0,3.65-1.63,3.65-3.65v-10.54c0-2.01-1.63-3.65-3.65-3.65h-59.38c2.01,0,3.65,1.63,3.65,3.65Z"/><path class="cls-3" d="M741.23,207.39v10.54c0,2.01-1.63,3.65-3.65,3.65h18.74c2.01,0,3.65-1.63,3.65-3.65v-10.54c0-2.01-1.63-3.65-3.65-3.65h-18.74c2.01,0,3.65,1.63,3.65,3.65Z"/><rect class="cls-2" x="638.2" y="274.95" width="115.72" height="17.83" rx="3.65" ry="3.65" transform="translate(1392.12 567.72) rotate(180)"/><path class="cls-1" d="M753.92,278.59v10.54c0,2.01-1.63,3.65-3.65,3.65h38.47c2.01,0,3.65-1.63,3.65-3.65v-10.54c0-2.01-1.63-3.65-3.65-3.65h-38.47c2.01,0,3.65,1.63,3.65,3.65Z"/><path class="cls-3" d="M792.39,278.59v10.54c0,2.01-1.63,3.65-3.65,3.65h51.87c2.01,0,3.65-1.63,3.65-3.65v-10.54c0-2.01-1.63-3.65-3.65-3.65h-51.87c2.01,0,3.65,1.63,3.65,3.65Z"/><rect class="cls-2" x="638.2" y="310.55" width="69.62" height="17.83" rx="3.65" ry="3.65" transform="translate(1346.01 638.93) rotate(180)"/><path class="cls-1" d="M707.81,314.2v10.54c0,2.01-1.63,3.65-3.65,3.65h19.52c2.01,0,3.65-1.63,3.65-3.65v-10.54c0-2.01-1.63-3.65-3.65-3.65h-19.52c2.01,0,3.65,1.63,3.65,3.65Z"/><path class="cls-3" d="M727.34,314.2v10.54c0,2.01-1.63,3.65-3.65,3.65h32.63c2.01,0,3.65-1.63,3.65-3.65v-10.54c0-2.01-1.63-3.65-3.65-3.65h-32.63c2.01,0,3.65,1.63,3.65,3.65Z"/><path class="cls-2" d="M18.4,381.37c0-2.15,1.74-3.89,3.89-3.89h107.24c25.48,0,41.92,4.82,50.95,14.64,8.23,9.22,11.44,24.27,11.44,53.76s-3.81,44.53-14.04,53.96c-8.42,7.82-22.67,11.43-45.13,11.43H22.29c-2.15,0-3.89-1.74-3.89-3.89v-126.02ZM125.92,486.8c10.83,0,18.25-1.4,23.67-4.41,7.82-4.21,11.03-14.44,11.03-35.1,0-37.11-5.82-44.53-34.7-44.53H53.18c-2.15,0-3.89,1.74-3.89,3.89v76.27c0,2.15,1.74,3.89,3.89,3.89h72.74Z"/><path class="cls-2" d="M224.71,377.08h21.06c1.5,0,2.71,1.21,2.71,2.71v16.65c0,1.5-1.21,2.71-2.71,2.71h-21.06c-1.5,0-2.71-1.21-2.71-2.71v-16.65c0-1.5,1.21-2.71,2.71-2.71ZM224.71,417.19h21.06c1.5,0,2.71,1.21,2.71,2.71v88.66c0,1.5-1.21,2.71-2.71,2.71h-21.06c-1.5,0-2.71-1.21-2.71-2.71v-88.66c0-1.5,1.21-2.71,2.71-2.71Z"/><path class="cls-2" d="M282.04,417.19h19.34c1.69,0,3.07,1.37,3.07,3.07v4.09c0,2.93,3.81,4.26,5.5,1.86,1.73-2.45,3.53-4,5.94-5.4,6.22-3.41,16.04-5.42,28.28-5.42,18.85,0,30.69,4.41,35.7,13.24,3.21,5.61,4.41,12.23,4.41,23.47,0,.6,0,1.69-.04,3.03-.05,1.66-1.41,2.99-3.07,2.99h-19.12c-1.67,0-3.03-1.37-3.06-3.04-.11-5.95-.59-8.45-1.98-11.4-2.41-4.61-9.83-7.22-20.86-7.22-22.26,0-30.69,7.42-30.69,26.48v45.28c0,1.69-1.37,3.07-3.07,3.07h-20.35c-1.69,0-3.07-1.37-3.07-3.07v-87.94c0-1.69,1.37-3.07,3.07-3.07Z"/><path class="cls-2" d="M433.81,469.35c-1.78,0-3.17,1.52-3.07,3.3.48,8.94,2.27,14.71,5.5,17.76,4.01,3.61,15.05,5.21,34.7,5.21s27.74-2.56,29.86-11.3c.33-1.37,1.56-2.34,2.97-2.34h20.23c1.85,0,3.25,1.63,3.06,3.47-.86,8.34-3.65,14.15-8.79,18.4-8.22,6.62-21.46,9.03-49.34,9.03-21.46,0-38.31-1.8-45.53-5.01-14.44-6.62-19.86-18.05-19.86-43.12,0-20.26,3.41-31.69,11.43-39.11,8.42-7.82,20.66-10.03,53.36-10.03,30.29,0,42.12,2.81,50.15,11.64,6.62,7.62,9.03,16.85,9.03,35.91v3.14c0,1.7-1.38,3.08-3.08,3.08h-90.62ZM498.05,453.7c1.76,0,3.19-1.5,3.08-3.26-.23-3.5-.9-5.92-2.31-8.58-1.4-2.61-3.41-4.61-5.42-5.61-4.61-2.01-13.44-3.41-23.27-3.41-20.26,0-26.08.6-31.69,3.61-4.82,2.61-7.82,8.83-7.82,16.05v1.2h67.44Z"/><path class="cls-2" d="M672.94,475.57c2.11,0,3.76,1.81,3.6,3.92-1.92,26.11-16.17,33.59-59.98,33.59-26.28,0-40.72-2.01-49.34-6.82-11.63-6.42-16.45-18.85-16.45-41.92s4.82-35.7,16.04-41.92c8.63-4.82,23.07-7.02,47.74-7.02,44.94,0,58.7,6.92,60.58,32.59.15,2.1-1.5,3.91-3.6,3.91h-23.28v-.8c.4-4.61-2.61-9.63-7.02-12.24-4.21-2.41-12.44-3.41-27.28-3.41-19.06,0-26.48,1.61-30.89,6.82-3.61,4.21-5.42,11.23-5.42,22.07,0,11.83,2.01,19.06,6.62,23.27,4.41,4.21,11.83,5.42,33.5,5.42s29.39-3.56,31.16-14.42c.28-1.74,1.78-3.03,3.54-3.03h20.47Z"/><path class="cls-2" d="M801.11,476.77c0,17.25-1.6,23.27-7.42,28.48-6.42,5.61-16.25,7.82-35.31,7.82-21.46,0-31.69-2.61-38.71-9.83-4.61-4.62-7.22-14.64-6.62-23.67l.2-1.6.18-38.52c0-1.88-1.51-3.41-3.39-3.41h-12.86c-1.87,0-3.39-1.52-3.39-3.39v-12.08c0-1.87,1.52-3.39,3.39-3.39h13.08c1.87,0,3.39-1.52,3.39-3.39v-15.08c0-1.87,1.52-3.39,3.39-3.39h20.06c1.88,0,3.41,1.54,3.39,3.42l-.14,15.02c-.02,1.88,1.51,3.42,3.39,3.42h53.16c1.87,0,3.39,1.52,3.39,3.39v12.08c0,1.87-1.52,3.39-3.39,3.39h-53.23c-1.86,0-3.37,1.5-3.39,3.35l-.37,34.16c-.2,16.65,3.41,19.86,21.86,19.86,7.82,0,12.64-1.4,15.45-4.01,2.4-2.61,2.81-5.42,2.81-15.05v-3.61h17.67c1.87,0,3.39,1.52,3.39,3.39v2.63Z"/><path class="cls-2" d="M856.47,468.95v1.4c0,8.63,1.6,13.24,5.42,15.44,4.82,2.81,15.25,4.02,34.9,4.02,16.65,0,27.08-.61,41.52-2.41,7.62-1,11.43-2.41,13.84-5.22,2.61-3.21,4.01-7.22,4.01-11.43,0-7.82-3.41-11.64-12.64-13.64-5.61-1.2-5.81-1.2-42.32-1.4h-19.26c-28.29-.2-39.32-2.4-46.74-9.22-6.42-5.62-9.43-14.04-9.43-25.88,0-14.84,3.61-27.08,10.03-32.69,9.03-8.42,29.49-11.63,73.62-11.63,26.88,0,41.32,1,50.55,3.81,16.65,4.82,22.46,13.84,22.46,34.5v2.61h-24c-3.27,0-6-2.36-6.66-5.56-.88-4.29-2.78-6.82-5.85-8.28-5.61-2.61-18.45-4.21-33.3-4.21-25.27,0-42.93,1.6-48.94,4.61-4.82,2.21-7.22,6.82-7.22,13.04,0,5.81,1.81,9.63,5.61,11.83,4.62,2.61,12.24,3.41,33.3,3.41h22.67c40.12,0,52.35,2.2,60.78,11.23,5.61,5.82,8.22,14.64,8.22,27.88,0,14.04-3.01,23.67-9.63,30.09-8.83,8.42-26.08,11.23-71.21,11.23-48.14,0-63.19-2.2-71.61-10.23-6.02-5.82-8.63-13.84-8.63-26.48,0-.01,0-.02,0-.04,0-3.74,3.04-6.78,6.78-6.78h23.71Z"/><path class="cls-2" d="M1043.89,469.35c-2.27,0-4.06,1.95-3.91,4.21.55,8.42,2.33,13.91,5.44,16.85,4.01,3.61,15.05,5.21,34.7,5.21s27.37-2.44,29.7-10.68c.49-1.72,1.99-2.96,3.78-2.96h18.65c2.35,0,4.18,2.08,3.9,4.41-.97,7.83-3.74,13.37-8.68,17.45-8.22,6.62-21.46,9.03-49.34,9.03-21.46,0-38.31-1.8-45.53-5.01-14.44-6.62-19.86-18.05-19.86-43.12,0-20.26,3.41-31.69,11.43-39.11,8.42-7.82,20.66-10.03,53.36-10.03,30.29,0,42.12,2.81,50.15,11.64,6.62,7.62,9.03,16.85,9.03,35.91v2.31c0,2.16-1.75,3.91-3.91,3.91h-88.9ZM1106.34,453.7c2.32,0,4.12-2.02,3.89-4.33-.29-2.94-.97-5.13-2.23-7.51-1.4-2.61-3.41-4.61-5.42-5.61-4.61-2.01-13.44-3.41-23.27-3.41-20.26,0-26.08.6-31.69,3.61-4.82,2.61-7.82,8.83-7.82,16.05v1.2h66.53Z"/><path class="cls-2" d="M1285.09,551.79h-19.19c-2.01,0-3.65-1.63-3.65-3.65v-40.69c0-3.13-3.68-4.81-6.03-2.74-2.12,1.88-4.71,3.38-8.01,4.75-6.22,2.61-15.05,3.61-30.89,3.61-47.34,0-57.37-8.42-57.37-48.74s10.63-48.94,59.77-48.94c18.45,0,29.28,2.01,35.31,6.42.68.52,1.31,1.06,1.89,1.65,2.34,2.35,6.33.85,6.33-2.47v-.15c0-2.01,1.63-3.65,3.65-3.65h18.18c2.01,0,3.65,1.63,3.65,3.65v127.3c0,2.01-1.63,3.65-3.65,3.65ZM1191.86,441.87c-3.61,4.21-5.02,10.63-5.02,23.27,0,24.87,4.62,27.88,42.53,27.88,15.04,0,24.87-2.2,28.48-6.42,2.81-3.21,4.62-11.43,4.62-21.06,0-12.63-.8-17.25-3.81-21.86-3.61-6.02-11.83-8.23-29.49-8.23-23.87,0-33.1,1.61-37.31,6.42Z"/></svg>