<?xml version="1.0" encoding="UTF-8"?><svg id="Layer_1" xmlns="http://www.w3.org/2000/svg" viewBox="0 0 1300 562.88"><defs><style>.cls-1{fill:#0a2142;}</style></defs><rect class="cls-1" x="632.8" y="166.26" width="17.77" height="17.77" rx="3.63" ry="3.63"/><path class="cls-1" d="M448.66,113.07h22.28s.01,0,.02,0c0,0,0,0,0,0h175.77c2.01,0,3.63-1.63,3.63-3.63v-10.5c0-2.01-1.63-3.63-3.63-3.63h-175.79s0,0,0,0h-22.28c-2.01,0-3.64,1.63-3.64,3.64v10.5c0,2.01,1.63,3.64,3.64,3.64Z"/><path class="cls-1" d="M551.33,148.55h95.4c2.01,0,3.63-1.63,3.63-3.63v-10.5c0-2.01-1.63-3.63-3.63-3.63h-36.23s-59.17,0-59.17,0h-18.67c-2.01,0-3.63,1.63-3.63,3.63v10.5c0,2.01,1.63,3.63,3.63,3.63h18.67s0,0,0,0ZM609.51,130.93c-.56.16-1.07.44-1.48.83.42-.39.92-.67,1.48-.83Z"/><rect class="cls-1" x="445.03" y="59.83" width="205.34" height="17.77" rx="3.63" ry="3.63"/><path class="cls-1" d="M532.66,42.12h32.51c-.09,0-.17-.02-.26-.03.09,0,.17.03.26.03h19.46c-.53,0-1.04-.12-1.5-.33.46.21.96.33,1.5.33h62.1c2.01,0,3.63-1.63,3.63-3.63v-10.5c0-2.01-1.63-3.63-3.63-3.63h-114.08c-2.01,0-3.63,1.63-3.63,3.63v10.5c0,2.01,1.63,3.63,3.63,3.63Z"/><path class="cls-1" d="M834.18,290.46c2.01,0,3.64-1.63,3.64-3.64v-10.5c0-2.01-1.63-3.64-3.64-3.64h-198.07c-2.01,0-3.63,1.63-3.63,3.64v10.5c0,2.01,1.63,3.63,3.63,3.63,0,0,175.77,0,175.77,0,0,0,22.3,0,22.3,0Z"/><rect class="cls-1" x="632.48" y="308.16" width="121.34" height="17.77" rx="3.63" ry="3.63"/><path class="cls-1" d="M834.18,237.21h-198.07c-2.01,0-3.63,1.63-3.63,3.63v10.5c0,2.01,1.63,3.63,3.63,3.63h198.07c2.01,0,3.63-1.63,3.63-3.63v-10.5c0-2.01-1.63-3.63-3.63-3.63Z"/><path class="cls-1" d="M632.48,205.37v10.5c0,2.01,1.63,3.63,3.63,3.63h62.1c.33,0,.64-.05.94-.13-.3.08-.61.13-.94.13h19.46c.1,0,.19-.02.28-.03-.09,0-.18.03-.28.03h32.51c2.01,0,3.63-1.63,3.63-3.63v-10.5c0-2.01-1.63-3.63-3.63-3.63h-114.08c-2.01,0-3.63,1.63-3.63,3.63Z"/><path class="cls-1" d="M127.79,374.86H20.93c-2.14,0-3.87,1.73-3.87,3.87v125.58c0,2.14,1.73,3.87,3.87,3.87h110.06c22.39,0,36.58-3.6,44.97-11.39,10.2-9.39,13.99-23.99,13.99-53.77s-3.2-44.38-11.4-53.57c-8.99-9.79-25.38-14.59-50.77-14.59ZM147.78,479.4c-5.4,3-12.79,4.4-23.59,4.4H51.71c-2.14,0-3.87-1.73-3.87-3.87v-76c0-2.14,1.73-3.87,3.87-3.87h72.48c28.78,0,34.58,7.4,34.58,44.37,0,20.59-3.2,30.78-10.99,34.98Z"/><rect class="cls-1" x="219.94" y="414.44" width="26.39" height="93.75" rx="2.7" ry="2.7"/><rect class="cls-1" x="219.94" y="374.46" width="26.39" height="21.99" rx="2.7" ry="2.7"/><path class="cls-1" d="M341.68,412.64c-12.19,0-21.99,2-28.18,5.4-2.4,1.4-4.19,2.94-5.92,5.39-1.68,2.39-5.48,1.06-5.48-1.86v-4.07c0-1.69-1.37-3.06-3.06-3.06h-19.27c-1.69,0-3.06,1.37-3.06,3.06v87.64c0,1.69,1.37,3.06,3.06,3.06h20.28c1.69,0,3.06-1.37,3.06-3.06v-45.12c0-18.99,8.39-26.39,30.58-26.39,10.99,0,18.39,2.6,20.79,7.2,1.38,2.94,1.87,5.43,1.97,11.36.03,1.67,1.38,3.03,3.05,3.03h19.06c1.65,0,3-1.33,3.06-2.98.04-1.33.04-2.42.04-3.02,0-11.19-1.2-17.79-4.4-23.38-5-8.8-16.79-13.19-35.58-13.19Z"/><path class="cls-1" d="M465.4,412.84c-32.58,0-44.77,2.2-53.17,10-7.99,7.4-11.39,18.79-11.39,38.98,0,24.99,5.4,36.38,19.79,42.97,7.2,3.2,23.99,5,45.37,5,27.79,0,40.98-2.4,49.17-8.99,5.12-4.23,7.9-10.03,8.76-18.33.19-1.83-1.21-3.45-3.05-3.45h-20.16c-1.4,0-2.63.97-2.96,2.33-2.12,8.71-9.47,11.26-29.76,11.26s-30.58-1.6-34.58-5.19c-3.22-3.04-5-8.8-5.48-17.7-.1-1.78,1.28-3.29,3.06-3.29h90.3c1.69,0,3.06-1.37,3.06-3.07v-3.13c0-18.99-2.4-28.19-8.99-35.78-8-8.8-19.79-11.6-49.97-11.6ZM495.03,450.81h-67.2v-1.2c0-7.2,3-13.39,7.8-15.99,5.6-3,11.39-3.6,31.58-3.6,9.79,0,18.59,1.4,23.19,3.4,2,1,4,3,5.4,5.6,1.4,2.65,2.08,5.06,2.31,8.55.11,1.75-1.31,3.24-3.07,3.24Z"/><path class="cls-1" d="M669.3,472.61h-20.4c-1.76,0-3.24,1.29-3.53,3.02-1.77,10.82-9.74,14.37-31.05,14.37s-28.98-1.2-33.38-5.4c-4.6-4.2-6.6-11.39-6.6-23.19,0-10.79,1.8-17.79,5.4-21.99,4.4-5.19,11.79-6.8,30.78-6.8,14.79,0,22.99,1,27.18,3.4,4.4,2.6,7.4,7.6,7,12.19v.8h23.2c2.1,0,3.75-1.81,3.59-3.9-1.87-25.58-15.59-32.48-60.37-32.48-24.59,0-38.98,2.2-47.57,6.99-11.19,6.2-15.99,18.99-15.99,41.78s4.8,35.38,16.39,41.78c8.6,4.8,22.99,6.8,49.17,6.8,43.66,0,57.86-7.46,59.77-33.48.15-2.09-1.49-3.9-3.59-3.9Z"/><path class="cls-1" d="M793.64,467.81h-17.61v3.6c0,9.6-.4,12.39-2.8,14.99-2.8,2.6-7.6,4-15.39,4-18.39,0-21.98-3.2-21.79-19.79l.36-34.04c.02-1.85,1.53-3.34,3.38-3.34h53.04c1.87,0,3.38-1.51,3.38-3.38v-12.03c0-1.87-1.51-3.38-3.38-3.38h-52.97c-1.88,0-3.4-1.53-3.38-3.41l.14-14.97c.02-1.88-1.5-3.41-3.38-3.41h-19.99c-1.87,0-3.38,1.51-3.38,3.38v15.03c0,1.87-1.51,3.38-3.38,3.38h-13.03c-1.87,0-3.38,1.51-3.38,3.38v12.03c0,1.87,1.51,3.38,3.38,3.38h12.81c1.87,0,3.39,1.52,3.38,3.39l-.18,38.38-.2,1.6c-.6,8.99,2,18.99,6.59,23.59,6.99,7.19,17.19,9.79,38.58,9.79,18.99,0,28.79-2.2,35.18-7.8,5.8-5.2,7.4-11.19,7.4-28.39v-2.62c0-1.87-1.51-3.38-3.38-3.38Z"/><path class="cls-1" d="M913.55,429.23h-22.59c-20.99,0-28.58-.8-33.18-3.4-3.79-2.2-5.6-6-5.6-11.79,0-6.2,2.4-10.79,7.2-13,6-3,23.59-4.6,48.77-4.6,14.79,0,27.58,1.6,33.18,4.2,3.06,1.46,4.95,3.98,5.83,8.25.65,3.19,3.38,5.54,6.63,5.54h23.92v-2.6c0-20.59-5.8-29.58-22.39-34.38-9.2-2.8-23.59-3.79-50.37-3.79-43.97,0-64.36,3.2-73.36,11.59-6.4,5.6-9.99,17.79-9.99,32.58,0,11.79,3,20.19,9.39,25.79,7.4,6.8,18.39,8.99,46.57,9.19h19.19c36.38.2,36.58.2,42.17,1.4,9.2,2,12.59,5.8,12.59,13.59,0,4.2-1.4,8.2-4,11.39-2.4,2.8-6.2,4.2-13.79,5.2-14.39,1.8-24.79,2.4-41.38,2.4-19.59,0-29.98-1.2-34.78-4-3.8-2.2-5.4-6.79-5.4-15.39v-1.4h-23.62c-3.73,0-6.76,3.03-6.76,6.76v.04c0,12.59,2.6,20.59,8.6,26.39,8.4,7.99,23.38,10.19,71.36,10.19,44.97,0,62.16-2.8,70.96-11.19,6.59-6.4,9.59-15.99,9.59-29.98,0-13.19-2.6-21.99-8.19-27.79-8.4-8.99-20.59-11.19-60.56-11.19Z"/><path class="cls-1" d="M1072.46,412.84c-32.58,0-44.77,2.2-53.17,10-7.99,7.4-11.39,18.79-11.39,38.98,0,24.99,5.4,36.38,19.79,42.97,7.2,3.2,23.99,5,45.37,5,27.79,0,40.98-2.4,49.17-8.99,4.92-4.07,7.68-9.59,8.65-17.39.29-2.32-1.54-4.39-3.88-4.39h-18.58c-1.78,0-3.28,1.23-3.76,2.95-2.32,8.21-9.8,10.64-29.6,10.64s-30.58-1.6-34.58-5.19c-3.11-2.93-4.87-8.4-5.42-16.79-.15-2.25,1.64-4.2,3.89-4.2h88.59c2.15,0,3.89-1.74,3.89-3.89v-2.3c0-18.99-2.4-28.19-8.99-35.78-8-8.8-19.79-11.6-49.97-11.6ZM1101.18,450.81h-66.3v-1.2c0-7.2,3-13.39,7.8-15.99,5.6-3,11.39-3.6,31.58-3.6,9.79,0,18.59,1.4,23.19,3.4,2,1,4,3,5.4,5.6,1.26,2.37,1.93,4.55,2.22,7.48.23,2.3-1.57,4.31-3.88,4.31Z"/><path class="cls-1" d="M1279.31,414.44h-18.12c-2.01,0-3.63,1.63-3.63,3.63v.15c0,3.31-3.97,4.81-6.31,2.46-.58-.59-1.21-1.12-1.89-1.64-6-4.4-16.79-6.4-35.18-6.4-48.97,0-59.57,8.59-59.57,48.77s9.99,48.57,57.17,48.57c15.79,0,24.59-1,30.78-3.6,3.29-1.37,5.87-2.87,7.99-4.74,2.34-2.06,6-.39,6,2.73v40.55c0,2.01,1.63,3.63,3.63,3.63h19.12c2.01,0,3.63-1.63,3.63-3.63v-126.86c0-2.01-1.63-3.63-3.63-3.63ZM1252.16,483.6c-3.6,4.2-13.39,6.4-28.38,6.4-37.78,0-42.38-3-42.38-27.78,0-12.59,1.4-18.99,5-23.19,4.2-4.79,13.39-6.4,37.18-6.4,17.59,0,25.79,2.2,29.38,8.2,3,4.6,3.8,9.2,3.8,21.79,0,9.6-1.8,17.79-4.6,20.99Z"/></svg>