<?xml version="1.0" encoding="UTF-8"?><svg id="Layer_1" xmlns="http://www.w3.org/2000/svg" viewBox="0 0 1300 292.38"><defs><style>.cls-1{fill:#0a2142;}</style></defs><rect class="cls-1" x="167.27" y="136.18" width="13.78" height="13.78" rx="2.82" ry="2.82"/><path class="cls-1" d="M24.47,94.94h17.28s.01,0,.02,0c0,0,0,0,0,0h136.3c1.56,0,2.82-1.26,2.82-2.82v-8.14c0-1.56-1.26-2.82-2.82-2.82H41.75s0,0,0,0h-17.28c-1.56,0-2.82,1.26-2.82,2.82v8.14c0,1.56,1.26,2.82,2.82,2.82Z"/><path class="cls-1" d="M104.09,122.45h73.98c1.56,0,2.82-1.26,2.82-2.82v-8.14c0-1.56-1.26-2.82-2.82-2.82h-28.1s-45.88,0-45.88,0h-14.48c-1.56,0-2.82,1.26-2.82,2.82v8.14c0,1.56,1.26,2.82,2.82,2.82h14.48s0,0,0,0ZM149.2,108.79c-.44.12-.83.34-1.15.65.32-.3.72-.52,1.15-.65Z"/><rect class="cls-1" x="21.65" y="53.65" width="159.23" height="13.78" rx="2.82" ry="2.82"/><path class="cls-1" d="M89.61,39.91h25.21c-.07,0-.13-.02-.2-.02.07,0,.13.02.2.02h15.09c-.41,0-.81-.09-1.16-.26.35.16.74.26,1.16.26h48.16c1.56,0,2.82-1.26,2.82-2.82v-8.14c0-1.56-1.26-2.82-2.82-2.82h-88.46c-1.56,0-2.82,1.26-2.82,2.82v8.14c0,1.56,1.26,2.82,2.82,2.82Z"/><path class="cls-1" d="M323.43,232.49c1.56,0,2.82-1.26,2.82-2.82v-8.14c0-1.56-1.26-2.82-2.82-2.82h-153.59c-1.56,0-2.82,1.26-2.82,2.82v8.14c0,1.56,1.26,2.82,2.82,2.82,0,0,136.3,0,136.3,0,0,0,17.29,0,17.29,0Z"/><rect class="cls-1" x="167.01" y="246.22" width="94.1" height="13.78" rx="2.82" ry="2.82"/><path class="cls-1" d="M323.43,191.2h-153.6c-1.56,0-2.82,1.26-2.82,2.82v8.14c0,1.56,1.26,2.82,2.82,2.82h153.6c1.56,0,2.82-1.26,2.82-2.82v-8.14c0-1.56-1.26-2.82-2.82-2.82Z"/><path class="cls-1" d="M167.01,166.51v8.14c0,1.56,1.26,2.82,2.82,2.82h48.16c.25,0,.5-.04.73-.1-.23.06-.48.1-.73.1h15.09c.07,0,.15-.02.22-.02-.07,0-.14.02-.22.02h25.21c1.56,0,2.82-1.26,2.82-2.82v-8.14c0-1.56-1.26-2.82-2.82-2.82h-88.46c-1.56,0-2.82,1.26-2.82,2.82Z"/><path class="cls-1" d="M368.46,94.46c0-1.54,1.25-2.79,2.79-2.79h76.96c18.28,0,30.09,3.46,36.56,10.51,5.9,6.62,8.21,17.42,8.21,38.58s-2.74,31.96-10.08,38.72c-6.05,5.61-16.27,8.2-32.39,8.2h-79.27c-1.54,0-2.79-1.25-2.79-2.79v-90.44ZM445.62,170.12c7.77,0,13.1-1,16.99-3.17,5.61-3.02,7.92-10.36,7.92-25.19,0-26.63-4.18-31.96-24.9-31.96h-52.2c-1.54,0-2.79,1.25-2.79,2.79v54.74c0,1.54,1.25,2.79,2.79,2.79h52.2Z"/><path class="cls-1" d="M516.52,91.38h15.12c1.07,0,1.94.87,1.94,1.94v11.95c0,1.07-.87,1.94-1.94,1.94h-15.12c-1.07,0-1.94-.87-1.94-1.94v-11.95c0-1.07.87-1.94,1.94-1.94ZM516.52,120.17h15.12c1.07,0,1.94.87,1.94,1.94v63.63c0,1.07-.87,1.94-1.94,1.94h-15.12c-1.07,0-1.94-.87-1.94-1.94v-63.63c0-1.07.87-1.94,1.94-1.94Z"/><path class="cls-1" d="M557.66,120.17h13.88c1.22,0,2.2.99,2.2,2.2v2.93c0,2.1,2.74,3.06,3.95,1.34,1.24-1.76,2.54-2.87,4.26-3.88,4.46-2.45,11.51-3.89,20.3-3.89,13.53,0,22.02,3.17,25.62,9.5,2.3,4.03,3.17,8.78,3.17,16.84,0,.43,0,1.21-.03,2.17-.04,1.19-1.01,2.14-2.2,2.14h-13.72c-1.2,0-2.18-.98-2.2-2.18-.08-4.27-.43-6.06-1.42-8.18-1.73-3.31-7.05-5.18-14.97-5.18-15.98,0-22.02,5.33-22.02,19v32.49c0,1.22-.99,2.2-2.2,2.2h-14.6c-1.22,0-2.2-.99-2.2-2.2v-63.11c0-1.22.99-2.2,2.2-2.2Z"/><path class="cls-1" d="M666.57,157.6c-1.28,0-2.27,1.09-2.2,2.37.35,6.41,1.63,10.56,3.95,12.75,2.88,2.59,10.8,3.74,24.9,3.74s19.91-1.84,21.43-8.11c.24-.98,1.12-1.68,2.13-1.68h14.52c1.33,0,2.33,1.17,2.2,2.49-.62,5.98-2.62,10.15-6.31,13.2-5.9,4.75-15.4,6.48-35.41,6.48-15.4,0-27.49-1.29-32.68-3.6-10.36-4.75-14.25-12.95-14.25-30.95,0-14.54,2.45-22.74,8.2-28.07,6.05-5.61,14.83-7.2,38.29-7.2,21.74,0,30.23,2.02,35.99,8.35,4.75,5.47,6.48,12.09,6.48,25.77v2.25c0,1.22-.99,2.21-2.21,2.21h-65.03ZM712.68,146.37c1.27,0,2.29-1.07,2.21-2.34-.16-2.51-.65-4.25-1.66-6.16-1.01-1.87-2.45-3.31-3.89-4.03-3.31-1.44-9.64-2.45-16.7-2.45-14.54,0-18.71.43-22.74,2.59-3.46,1.87-5.61,6.33-5.61,11.52v.86h48.4Z"/><path class="cls-1" d="M838.19,162.07c1.51,0,2.7,1.3,2.59,2.81-1.38,18.74-11.6,24.11-43.05,24.11-18.86,0-29.22-1.44-35.41-4.9-8.35-4.61-11.8-13.53-11.8-30.09s3.46-25.62,11.51-30.09c6.19-3.46,16.56-5.04,34.26-5.04,32.25,0,42.13,4.97,43.48,23.39.11,1.51-1.08,2.81-2.59,2.81h-16.71v-.58c.29-3.31-1.87-6.91-5.04-8.78-3.02-1.73-8.92-2.45-19.58-2.45-13.68,0-19,1.15-22.17,4.9-2.59,3.02-3.89,8.06-3.89,15.84,0,8.49,1.44,13.68,4.75,16.7,3.17,3.02,8.49,3.89,24.04,3.89s21.09-2.55,22.36-10.35c.2-1.25,1.28-2.17,2.54-2.17h14.69Z"/><path class="cls-1" d="M930.17,162.93c0,12.38-1.15,16.7-5.33,20.44-4.61,4.03-11.66,5.61-25.34,5.61-15.4,0-22.74-1.87-27.78-7.05-3.31-3.31-5.18-10.51-4.75-16.99l.14-1.15.13-27.64c0-1.35-1.08-2.44-2.43-2.44h-9.23c-1.34,0-2.43-1.09-2.43-2.43v-8.67c0-1.34,1.09-2.43,2.43-2.43h9.38c1.34,0,2.43-1.09,2.43-2.43v-10.82c0-1.34,1.09-2.43,2.43-2.43h14.4c1.35,0,2.45,1.1,2.43,2.46l-.1,10.78c-.01,1.35,1.08,2.46,2.43,2.46h38.15c1.34,0,2.43,1.09,2.43,2.43v8.67c0,1.34-1.09,2.43-2.43,2.43h-38.2c-1.33,0-2.42,1.07-2.43,2.41l-.26,24.51c-.14,11.95,2.45,14.25,15.69,14.25,5.61,0,9.07-1.01,11.09-2.88,1.72-1.87,2.01-3.89,2.01-10.8v-2.59h12.68c1.34,0,2.43,1.09,2.43,2.43v1.88Z"/><path class="cls-1" d="M969.9,157.31v1.01c0,6.19,1.15,9.5,3.89,11.08,3.46,2.02,10.94,2.88,25.05,2.88,11.95,0,19.43-.43,29.8-1.73,5.47-.72,8.2-1.73,9.93-3.74,1.87-2.3,2.88-5.18,2.88-8.2,0-5.61-2.45-8.35-9.07-9.79-4.03-.86-4.17-.86-30.37-1.01h-13.82c-20.3-.14-28.22-1.72-33.54-6.62-4.61-4.03-6.77-10.08-6.77-18.57,0-10.65,2.59-19.43,7.2-23.46,6.48-6.05,21.16-8.35,52.83-8.35,19.29,0,29.66.72,36.28,2.73,11.95,3.46,16.12,9.93,16.12,24.76v1.87h-17.22c-2.34,0-4.31-1.69-4.78-3.99-.63-3.08-1.99-4.9-4.2-5.94-4.03-1.87-13.24-3.02-23.89-3.02-18.14,0-30.81,1.15-35.12,3.31-3.46,1.59-5.18,4.9-5.18,9.36,0,4.17,1.3,6.91,4.03,8.49,3.31,1.87,8.78,2.45,23.9,2.45h16.27c28.79,0,37.57,1.58,43.62,8.06,4.03,4.18,5.9,10.51,5.9,20.01,0,10.08-2.16,16.99-6.91,21.59-6.33,6.05-18.71,8.06-51.1,8.06-34.55,0-45.35-1.58-51.39-7.34-4.32-4.18-6.19-9.93-6.19-19,0,0,0-.02,0-.03,0-2.69,2.18-4.87,4.87-4.87h17.01Z"/><path class="cls-1" d="M1104.4,157.6c-1.63,0-2.91,1.4-2.8,3.02.4,6.04,1.67,9.98,3.91,12.09,2.88,2.59,10.8,3.74,24.9,3.74s19.65-1.75,21.31-7.66c.35-1.23,1.43-2.12,2.71-2.12h13.38c1.68,0,3,1.49,2.8,3.16-.7,5.62-2.69,9.59-6.23,12.53-5.9,4.75-15.4,6.48-35.41,6.48-15.4,0-27.49-1.29-32.68-3.6-10.36-4.75-14.25-12.95-14.25-30.95,0-14.54,2.45-22.74,8.2-28.07,6.05-5.61,14.83-7.2,38.29-7.2,21.74,0,30.23,2.02,35.99,8.35,4.75,5.47,6.48,12.09,6.48,25.77v1.66c0,1.55-1.26,2.8-2.8,2.8h-63.8ZM1149.22,146.37c1.66,0,2.96-1.45,2.79-3.11-.21-2.11-.69-3.68-1.6-5.39-1.01-1.87-2.45-3.31-3.89-4.03-3.31-1.44-9.64-2.45-16.7-2.45-14.54,0-18.71.43-22.74,2.59-3.46,1.87-5.61,6.33-5.61,11.52v.86h47.75Z"/><path class="cls-1" d="M1277.51,216.77h-13.77c-1.45,0-2.62-1.17-2.62-2.62v-29.2c0-2.25-2.64-3.45-4.32-1.96-1.52,1.35-3.38,2.42-5.75,3.41-4.46,1.87-10.8,2.59-22.17,2.59-33.97,0-41.17-6.05-41.17-34.98s7.63-35.12,42.9-35.12c13.24,0,21.02,1.44,25.34,4.61.49.37.94.76,1.36,1.18,1.68,1.69,4.54.61,4.54-1.77v-.1c0-1.45,1.17-2.62,2.62-2.62h13.05c1.45,0,2.62,1.17,2.62,2.62v91.36c0,1.45-1.17,2.62-2.62,2.62ZM1210.6,137.88c-2.59,3.02-3.6,7.63-3.6,16.7,0,17.85,3.31,20.01,30.52,20.01,10.79,0,17.85-1.58,20.44-4.61,2.02-2.3,3.31-8.2,3.31-15.12,0-9.07-.58-12.38-2.74-15.69-2.59-4.32-8.49-5.9-21.16-5.9-17.13,0-23.75,1.15-26.77,4.61Z"/></svg>