<?xml version="1.0" encoding="UTF-8"?><svg id="Layer_1" xmlns="http://www.w3.org/2000/svg" viewBox="0 0 1300 1003.94"><defs><style>.cls-1{fill:#28bfa2;}.cls-2{fill:#f3ffff;}.cls-3{fill:#079093;}</style></defs><rect class="cls-2" x="613.63" y="467.66" width="57.3" height="57.3" rx="11.72" ry="11.72"/><path class="cls-3" d="M339.13,284.4v-33.87c0-6.47,5.25-11.72,11.72-11.72H91.58c6.48,0,11.73,5.25,11.73,11.73v33.85c0,6.46-5.22,11.7-11.68,11.72h259.17s0,0-.01,0c-6.45-.03-11.66-5.26-11.66-11.71Z"/><rect class="cls-2" x="383.77" y="238.81" width="286.5" height="57.3" rx="11.72" ry="11.72"/><path class="cls-1" d="M383.77,284.4v-33.87c0-6.47,5.25-11.72,11.72-11.72h-44.64c-6.47,0-11.72,5.25-11.72,11.72v33.87c0,6.47,5.25,11.72,11.72,11.72h44.64c-6.47,0-11.72-5.25-11.72-11.72Z"/><rect class="cls-1" x="7.98" y="238.81" width="95.33" height="57.31" rx="11.73" ry="11.73"/><rect class="cls-2" x="529.98" y="353.24" width="140.3" height="57.3" rx="11.72" ry="11.72"/><path class="cls-1" d="M529.98,398.82v-33.86c0-6.47,5.25-11.72,11.72-11.72h-190.85c-6.47,0-11.72,5.25-11.72,11.72v33.86c0,6.47,5.25,11.72,11.72,11.72h190.85c-6.47,0-11.72-5.25-11.72-11.72Z"/><path class="cls-3" d="M339.13,398.82v-33.86c0-6.47,5.25-11.72,11.72-11.72h-60.23c-6.47,0-11.72,5.25-11.72,11.72v33.86c0,6.47,5.25,11.72,11.72,11.72h60.23c-6.47,0-11.72-5.25-11.72-11.72Z"/><rect class="cls-2" x="298.34" y="124.38" width="371.93" height="57.3" rx="11.72" ry="11.72"/><path class="cls-1" d="M298.34,169.97v-33.86c0-6.47,5.25-11.72,11.72-11.72h-123.64c-6.47,0-11.72,5.25-11.72,11.72v33.86c0,6.47,5.25,11.72,11.72,11.72h123.64c-6.47,0-11.72-5.25-11.72-11.72Z"/><path class="cls-3" d="M174.7,169.97v-33.86c0-6.47,5.25-11.72,11.72-11.72H19.7c-6.47,0-11.72,5.25-11.72,11.72v33.86c0,6.47,5.25,11.72,11.72,11.72h166.72c-6.47,0-11.72-5.25-11.72-11.72Z"/><rect class="cls-2" x="446.53" y="9.96" width="223.75" height="57.3" rx="11.72" ry="11.72"/><path class="cls-1" d="M446.53,55.54V21.68c0-6.47,5.25-11.72,11.72-11.72h-62.75c-6.47,0-11.72,5.25-11.72,11.72v33.87c0,6.47,5.25,11.72,11.72,11.72h62.75c-6.47,0-11.72-5.25-11.72-11.72Z"/><path class="cls-3" d="M383.77,55.54V21.68c0-6.47,5.25-11.72,11.72-11.72h-104.87c-6.47,0-11.72,5.25-11.72,11.72v33.87c0,6.47,5.25,11.72,11.72,11.72h104.87c-6.47,0-11.72-5.25-11.72-11.72Z"/><path class="cls-3" d="M943.74,708.23v33.87c0,6.47-5.25,11.72-11.72,11.72h259.27c-6.48,0-11.73-5.25-11.73-11.73v-33.85c0-6.46,5.22-11.7,11.68-11.72h-259.17s0,0,.01,0c6.45.03,11.66,5.26,11.66,11.71Z"/><rect class="cls-2" x="612.59" y="696.51" width="286.5" height="57.3" rx="11.72" ry="11.72"/><path class="cls-1" d="M899.1,708.23v33.87c0,6.47-5.25,11.72-11.72,11.72h44.64c6.47,0,11.72-5.25,11.72-11.72v-33.87c0-6.47-5.25-11.72-11.72-11.72h-44.64c6.47,0,11.72,5.25,11.72,11.72Z"/><rect class="cls-1" x="1179.56" y="696.51" width="95.33" height="57.31" rx="11.73" ry="11.73"/><rect class="cls-2" x="612.59" y="582.09" width="140.3" height="57.3" rx="11.72" ry="11.72"/><path class="cls-1" d="M752.89,593.81v33.86c0,6.47-5.25,11.72-11.72,11.72h190.85c6.47,0,11.72-5.25,11.72-11.72v-33.86c0-6.47-5.25-11.72-11.72-11.72h-190.85c6.47,0,11.72,5.25,11.72,11.72Z"/><path class="cls-3" d="M943.74,593.81v33.86c0,6.47-5.25,11.72-11.72,11.72h60.23c6.47,0,11.72-5.25,11.72-11.72v-33.86c0-6.47-5.25-11.72-11.72-11.72h-60.23c6.47,0,11.72,5.25,11.72,11.72Z"/><rect class="cls-2" x="612.59" y="810.94" width="371.93" height="57.3" rx="11.72" ry="11.72"/><path class="cls-1" d="M984.53,822.66v33.86c0,6.47-5.25,11.72-11.72,11.72h123.64c6.47,0,11.72-5.25,11.72-11.72v-33.86c0-6.47-5.25-11.72-11.72-11.72h-123.64c6.47,0,11.72,5.25,11.72,11.72Z"/><path class="cls-3" d="M1108.17,822.66v33.86c0,6.47-5.25,11.72-11.72,11.72h166.72c6.47,0,11.72-5.25,11.72-11.72v-33.86c0-6.47-5.25-11.72-11.72-11.72h-166.72c6.47,0,11.72,5.25,11.72,11.72Z"/><rect class="cls-2" x="612.59" y="925.37" width="223.75" height="57.3" rx="11.72" ry="11.72"/><path class="cls-1" d="M836.34,937.09v33.87c0,6.47-5.25,11.72-11.72,11.72h62.75c6.47,0,11.72-5.25,11.72-11.72v-33.87c0-6.47-5.25-11.72-11.72-11.72h-62.75c6.47,0,11.72,5.25,11.72,11.72Z"/><path class="cls-3" d="M899.1,937.09v33.87c0,6.47-5.25,11.72-11.72,11.72h104.87c6.47,0,11.72-5.25,11.72-11.72v-33.87c0-6.47-5.25-11.72-11.72-11.72h-104.87c6.47,0,11.72,5.25,11.72,11.72Z"/></svg>