<?xml version="1.0" encoding="UTF-8"?><svg id="Layer_1" xmlns="http://www.w3.org/2000/svg" viewBox="0 0 1300 1003.94"><defs><style>.cls-1{fill:#f3ffff;}</style></defs><rect class="cls-1" x="622.14" y="473.26" width="57.42" height="57.42" rx="11.74" ry="11.74"/><path class="cls-1" d="M27,301.36h72.02s.04,0,.06,0c0,0,0,0-.01,0h568.09c6.49,0,11.74-5.25,11.74-11.74v-33.93c0-6.49-5.26-11.74-11.74-11.74H99.02s0,0,0,0H27c-6.49,0-11.75,5.26-11.75,11.75v33.92c0,6.49,5.26,11.75,11.75,11.75Z"/><path class="cls-1" d="M358.82,416.02h308.34c6.49,0,11.74-5.26,11.74-11.74v-33.93c0-6.49-5.26-11.74-11.74-11.74h-117.1s-191.24,0-191.24,0h-60.35c-6.49,0-11.74,5.26-11.74,11.74v33.93c0,6.49,5.26,11.74,11.74,11.74h60.35s0,0,0,0ZM546.86,359.1c-1.82.52-3.46,1.44-4.8,2.69,1.34-1.26,2.98-2.17,4.8-2.69Z"/><rect class="cls-1" x="15.25" y="129.27" width="663.65" height="57.42" rx="11.74" ry="11.74"/><path class="cls-1" d="M298.47,72.04h105.09c-.29,0-.55-.06-.84-.08.28.02.55.08.84.08h62.88c-1.73,0-3.36-.39-4.83-1.06,1.47.68,3.1,1.06,4.83,1.06h200.72c6.49,0,11.74-5.26,11.74-11.74V26.36c0-6.49-5.26-11.74-11.74-11.74h-368.69c-6.49,0-11.74,5.26-11.74,11.74v33.93c0,6.49,5.26,11.74,11.74,11.74Z"/><path class="cls-1" d="M1273,874.67c6.49,0,11.75-5.26,11.75-11.75v-33.92c0-6.49-5.26-11.75-11.75-11.75h-640.16c-6.49,0-11.74,5.26-11.74,11.75v33.93c0,6.49,5.26,11.74,11.74,11.74,0,0,568.08,0,568.08,0,.02,0,72.08,0,72.08,0Z"/><rect class="cls-1" x="621.1" y="931.9" width="392.18" height="57.42" rx="11.74" ry="11.74"/><path class="cls-1" d="M1273.01,702.58h-640.17c-6.49,0-11.74,5.26-11.74,11.74v33.93c0,6.49,5.26,11.74,11.74,11.74h640.17c6.49,0,11.74-5.26,11.74-11.74v-33.93c0-6.49-5.26-11.74-11.74-11.74Z"/><path class="cls-1" d="M621.1,599.66v33.93c0,6.49,5.26,11.74,11.74,11.74h200.72c1.05,0,2.06-.17,3.03-.43-.97.26-1.98.43-3.04.43h62.88c.31,0,.6-.07.91-.09-.31.02-.6.09-.91.09h105.09c6.49,0,11.74-5.26,11.74-11.74v-33.93c0-6.49-5.26-11.74-11.74-11.74h-368.69c-6.49,0-11.74,5.26-11.74,11.74Z"/></svg>