<?xml version="1.0" encoding="UTF-8"?><svg id="Layer_1" xmlns="http://www.w3.org/2000/svg" viewBox="0 0 1300 1003.94"><defs><style>.cls-1{fill:#0a2142;}</style></defs><rect class="cls-1" x="621.94" y="473.05" width="57.84" height="57.84" rx="11.83" ry="11.83"/><path class="cls-1" d="M22.48,299.91h72.54s.04,0,.06,0c0,0,0,0-.01,0h572.21c6.53,0,11.83-5.29,11.83-11.82v-34.18c0-6.53-5.3-11.83-11.83-11.83H95.02s0,0,0,0H22.48c-6.54,0-11.84,5.3-11.84,11.84v34.17c0,6.54,5.3,11.84,11.84,11.84Z"/><path class="cls-1" d="M356.71,415.4h310.58c6.53,0,11.83-5.3,11.83-11.83v-34.18c0-6.53-5.3-11.83-11.83-11.83h-117.95s-192.63,0-192.63,0h-60.79c-6.53,0-11.83,5.3-11.83,11.83v34.18c0,6.53,5.3,11.83,11.83,11.83h60.79s0,0,0,0ZM546.11,358.06c-1.83.52-3.48,1.45-4.83,2.71,1.35-1.26,3-2.19,4.83-2.71Z"/><path class="cls-1" d="M22.47,126.57h644.81c6.53,0,11.83,5.3,11.83,11.83v34.18c0,6.53-5.3,11.83-11.83,11.83H22.47c-6.53,0-11.83-5.3-11.83-11.83v-34.18c0-6.53,5.3-11.83,11.83-11.83Z"/><path class="cls-1" d="M295.92,68.92h105.85c-.29,0-.56-.06-.84-.09.28.02.55.09.84.09h63.34c-1.74,0-3.39-.39-4.87-1.07,1.48.68,3.13,1.07,4.87,1.07h202.18c6.53,0,11.83-5.3,11.83-11.83V22.91c0-6.53-5.3-11.83-11.83-11.83h-371.37c-6.53,0-11.83,5.3-11.83,11.83v34.18c0,6.53,5.3,11.83,11.83,11.83Z"/><path class="cls-1" d="M1277.52,877.37c6.54,0,11.84-5.3,11.84-11.84v-34.17c0-6.54-5.3-11.84-11.84-11.84h-644.8c-6.53,0-11.83,5.3-11.83,11.83v34.18c0,6.53,5.3,11.83,11.83,11.83,0,0,572.2,0,572.2,0,.02,0,72.6,0,72.6,0Z"/><path class="cls-1" d="M632.72,935.02h371.37c6.53,0,11.83,5.3,11.83,11.83v34.18c0,6.53-5.3,11.83-11.83,11.83h-371.37c-6.53,0-11.83-5.3-11.83-11.83v-34.18c0-6.53,5.3-11.83,11.83-11.83Z"/><path class="cls-1" d="M1277.53,704.04h-644.81c-6.53,0-11.83,5.3-11.83,11.83v34.18c0,6.53,5.3,11.83,11.83,11.83h644.81c6.53,0,11.83-5.3,11.83-11.83v-34.18c0-6.53-5.3-11.83-11.83-11.83Z"/><path class="cls-1" d="M620.89,600.37v34.18c0,6.53,5.3,11.83,11.83,11.83h202.18c1.06,0,2.08-.17,3.06-.44-.98.27-1.99.44-3.06.44h63.34c.31,0,.61-.07.92-.09-.31.02-.6.09-.92.09h105.85c6.53,0,11.83-5.3,11.83-11.83v-34.18c0-6.53-5.3-11.83-11.83-11.83h-371.37c-6.53,0-11.83,5.3-11.83,11.83Z"/></svg>