<?xml version="1.0" encoding="UTF-8"?><svg id="Layer_1" xmlns="http://www.w3.org/2000/svg" viewBox="0 0 1300 1003.94"><defs><style>.cls-1{fill:#28bfa2;}.cls-2{fill:#0a2142;}.cls-3{fill:#079093;}</style></defs><rect class="cls-2" x="614.33" y="468.9" width="57.01" height="57.01" rx="11.66" ry="11.66" transform="translate(1285.68 994.81) rotate(-180)"/><path class="cls-1" d="M341.26,286.59v-33.69c0-6.44,5.22-11.66,11.66-11.66H95c6.44,0,11.67,5.22,11.67,11.67v33.68c0,6.43-5.2,11.64-11.62,11.66h257.82s0,0,0,0c-6.41-.03-11.6-5.23-11.6-11.65Z"/><rect class="cls-2" x="385.67" y="241.24" width="285.01" height="57.01" rx="11.66" ry="11.66"/><path class="cls-3" d="M385.67,286.59v-33.69c0-6.44,5.22-11.66,11.66-11.66h-44.41c-6.44,0-11.66,5.22-11.66,11.66v33.69c0,6.44,5.22,11.66,11.66,11.66h44.41c-6.44,0-11.66-5.22-11.66-11.66Z"/><rect class="cls-3" x="11.84" y="241.24" width="94.83" height="57.01" rx="11.67" ry="11.67"/><rect class="cls-2" x="531.12" y="355.07" width="139.57" height="57.01" rx="11.66" ry="11.66"/><path class="cls-3" d="M531.12,400.42v-33.69c0-6.44,5.22-11.66,11.66-11.66h-189.86c-6.44,0-11.66,5.22-11.66,11.66v33.69c0,6.44,5.22,11.66,11.66,11.66h189.86c-6.44,0-11.66-5.22-11.66-11.66Z"/><path class="cls-1" d="M341.26,400.42v-33.69c0-6.44,5.22-11.66,11.66-11.66h-59.92c-6.44,0-11.66,5.22-11.66,11.66v33.69c0,6.44,5.22,11.66,11.66,11.66h59.92c-6.44,0-11.66-5.22-11.66-11.66Z"/><rect class="cls-2" x="300.69" y="127.41" width="370" height="57.01" rx="11.66" ry="11.66"/><path class="cls-3" d="M300.69,172.75v-33.69c0-6.44,5.22-11.66,11.66-11.66h-123c-6.44,0-11.66,5.22-11.66,11.66v33.69c0,6.44,5.22,11.66,11.66,11.66h123c-6.44,0-11.66-5.22-11.66-11.66Z"/><path class="cls-1" d="M177.69,172.75v-33.69c0-6.44,5.22-11.66,11.66-11.66H23.5c-6.44,0-11.66,5.22-11.66,11.66v33.69c0,6.44,5.22,11.66,11.66,11.66h165.85c-6.44,0-11.66-5.22-11.66-11.66Z"/><rect class="cls-2" x="448.1" y="13.57" width="222.59" height="57.01" rx="11.66" ry="11.66"/><path class="cls-3" d="M448.1,58.92V25.23c0-6.44,5.22-11.66,11.66-11.66h-62.43c-6.44,0-11.66,5.22-11.66,11.66v33.69c0,6.44,5.22,11.66,11.66,11.66h62.43c-6.44,0-11.66-5.22-11.66-11.66Z"/><path class="cls-1" d="M385.67,58.92V25.23c0-6.44,5.22-11.66,11.66-11.66h-104.33c-6.44,0-11.66,5.22-11.66,11.66v33.69c0,6.44,5.22,11.66,11.66,11.66h104.33c-6.44,0-11.66-5.22-11.66-11.66Z"/><path class="cls-1" d="M942.73,708.22v33.69c0,6.44-5.22,11.66-11.66,11.66h257.92c-6.44,0-11.67-5.22-11.67-11.67v-33.68c0-6.43,5.2-11.64,11.62-11.66h-257.82s0,0,0,0c6.41.03,11.6,5.23,11.6,11.65Z"/><rect class="cls-2" x="613.3" y="696.56" width="285.01" height="57.01" rx="11.66" ry="11.66" transform="translate(1511.62 1450.12) rotate(180)"/><path class="cls-3" d="M898.31,708.22v33.69c0,6.44-5.22,11.66-11.66,11.66h44.41c6.44,0,11.66-5.22,11.66-11.66v-33.69c0-6.44-5.22-11.66-11.66-11.66h-44.41c6.44,0,11.66,5.22,11.66,11.66Z"/><rect class="cls-3" x="1177.32" y="696.56" width="94.83" height="57.01" rx="11.67" ry="11.67" transform="translate(2449.47 1450.12) rotate(180)"/><rect class="cls-2" x="613.3" y="582.73" width="139.57" height="57.01" rx="11.66" ry="11.66" transform="translate(1366.17 1222.47) rotate(180)"/><path class="cls-3" d="M752.87,594.39v33.69c0,6.44-5.22,11.66-11.66,11.66h189.86c6.44,0,11.66-5.22,11.66-11.66v-33.69c0-6.44-5.22-11.66-11.66-11.66h-189.86c6.44,0,11.66,5.22,11.66,11.66Z"/><path class="cls-1" d="M942.72,594.39v33.69c0,6.44-5.22,11.66-11.66,11.66h59.92c6.44,0,11.66-5.22,11.66-11.66v-33.69c0-6.44-5.22-11.66-11.66-11.66h-59.92c6.44,0,11.66,5.22,11.66,11.66Z"/><rect class="cls-2" x="613.3" y="810.39" width="370" height="57.01" rx="11.66" ry="11.66" transform="translate(1596.6 1677.79) rotate(180)"/><path class="cls-3" d="M983.3,822.05v33.69c0,6.44-5.22,11.66-11.66,11.66h123c6.44,0,11.66-5.22,11.66-11.66v-33.69c0-6.44-5.22-11.66-11.66-11.66h-123c6.44,0,11.66,5.22,11.66,11.66Z"/><path class="cls-1" d="M1106.3,822.05v33.69c0,6.44-5.22,11.66-11.66,11.66h165.85c6.44,0,11.66-5.22,11.66-11.66v-33.69c0-6.44-5.22-11.66-11.66-11.66h-165.85c6.44,0,11.66,5.22,11.66,11.66Z"/><rect class="cls-2" x="613.3" y="924.22" width="222.59" height="57.01" rx="11.66" ry="11.66" transform="translate(1449.19 1905.45) rotate(180)"/><path class="cls-3" d="M835.89,935.88v33.69c0,6.44-5.22,11.66-11.66,11.66h62.43c6.44,0,11.66-5.22,11.66-11.66v-33.69c0-6.44-5.22-11.66-11.66-11.66h-62.43c6.44,0,11.66,5.22,11.66,11.66Z"/><path class="cls-1" d="M898.31,935.88v33.69c0,6.44-5.22,11.66-11.66,11.66h104.33c6.44,0,11.66-5.22,11.66-11.66v-33.69c0-6.44-5.22-11.66-11.66-11.66h-104.33c6.44,0,11.66,5.22,11.66,11.66Z"/></svg>